<?xml version="1.0" encoding="UTF-8"?><svg id="uuid-6f33a50c-39d2-48be-a970-1ab3ee1ccbb4" xmlns="http://www.w3.org/2000/svg" xmlns:xlink="http://www.w3.org/1999/xlink" viewBox="0 0 986 986.9"><defs><clipPath id="uuid-5ec9b52e-2024-4470-9056-02b7dbc39fbe"><circle cx="493.9" cy="494.8" r="492.1" style="fill:none; stroke-width:0px;"/></clipPath></defs><g id="uuid-5528c2fd-49b7-4dad-b422-bf4329c301a3"><path d="m196.83,759.96c5.86.16,11.66.32,17.4.46-5.69,0-11.49-.16-17.4-.46Z" style="fill:#ed481b; stroke-width:0px;"/><circle cx="493" cy="493" r="493" style="fill:#05082d; stroke-width:0px;"/><path d="m843.22,492.99c0,103.36-44.78,196.27-116,260.37-8.43,7.6-17.24,14.79-26.38,21.54-14.36,10.62-29.57,20.15-45.5,28.49-2.62,1.38-5.26,2.71-7.93,4.03-12.73,6.27-25.89,11.77-39.44,16.48-17.41,6.06-35.45,10.77-54,14.03-19.8,3.48-40.17,5.29-60.97,5.29-14.53,0-28.84-.88-42.9-2.6-18.47-2.25-36.49-5.95-53.96-10.96-17.25-4.95-33.95-11.19-49.99-18.62-.54-.24-1.07-.49-1.6-.74-16.86-7.9-32.98-17.1-48.23-27.48-10.83-7.36-21.23-15.32-31.15-23.83-74.92-64.22-122.39-159.55-122.39-265.98,0-128.76,69.5-241.3,173.02-302.13,51.98-30.56,112.54-48.08,177.19-48.08,31.04,0,61.13,4.03,89.79,11.62,3.8,1,7.57,2.07,11.31,3.2,11.78,3.54,23.3,7.7,34.52,12.41,14.29,6,28.09,12.92,41.33,20.7,0,0,0,0,.02,0,103.66,60.81,173.27,173.42,173.27,302.29Z" style="fill:none; stroke:#fff; stroke-miterlimit:10; stroke-width:14.14px;"/><path d="m493.79,178.59c0,45.94-9.84,55.78-55.78,55.78,45.94,0,55.78,9.84,55.78,55.78,0-45.94,9.84-55.78,55.78-55.78-45.94,0-55.78-9.84-55.78-55.78Z" style="fill:#fff; stroke-width:0px;"/><path d="m910.99,512.81c-1.17,13.26-4.27,15.85-17.53,14.68,13.26,1.17,15.85,4.27,14.68,17.53,1.17-13.26,4.27-15.85,17.53-14.68-13.26-1.17-15.85-4.27-14.68-17.53Z" style="fill:#fff; stroke-width:0px;"/><path d="m725.89,636.31c0,18.24-3.91,22.14-22.14,22.14,18.24,0,22.14,3.91,22.14,22.14,0-18.24,3.91-22.14,22.14-22.14-18.24,0-22.14-3.91-22.14-22.14Z" style="fill:#fff; stroke-width:0px;"/><path d="m255.75,635.75c0,19.07-4.09,23.15-23.15,23.15,19.07,0,23.15,4.09,23.15,23.15,0-19.07,4.09-23.15,23.15-23.15-19.07,0-23.15-4.09-23.15-23.15Z" style="fill:#fff; stroke-width:0px;"/><path d="m322.66,850.85c4.74,2.25,8.38,4.79,10.91,7.63,2.53,2.83,3.97,5.93,4.32,9.28.35,3.35-.39,6.96-2.22,10.81-2.67,5.63-6.55,9.11-11.63,10.43-5.08,1.32-11.12.33-18.1-2.99-3.89-1.84-7.04-4.05-9.45-6.63-2.41-2.58-3.94-5.32-4.6-8.23s-.3-5.82,1.08-8.72l9.78,4.64c-.67,1.42-.83,2.83-.46,4.23.36,1.4,1.17,2.74,2.43,4,1.26,1.26,2.89,2.37,4.9,3.32,2.37,1.12,4.56,1.67,6.55,1.62,2-.04,3.75-.57,5.26-1.59,1.51-1.02,2.71-2.47,3.6-4.34l.59-1.24c.89-1.88,1.25-3.73,1.09-5.56-.16-1.83-.85-3.53-2.06-5.1-1.21-1.56-2.97-2.89-5.28-3.99-2.17-1.03-4.16-1.66-5.97-1.89-1.81-.23-3.37-.05-4.67.54-1.31.59-2.29,1.58-2.95,2.96l-9.59-4.55c1.33-2.8,3.3-4.87,5.91-6.21,2.61-1.34,5.67-1.9,9.17-1.67,3.5.23,7.3,1.31,11.38,3.25Z" style="fill:#fff; stroke-width:0px;"/><path d="m273.52,822.94c4.19,2.79,7.39,5.86,9.61,9.2,2.22,3.34,3.36,6.78,3.42,10.3.06,3.52-1.04,6.99-3.31,10.38-2.26,3.4-5.04,5.75-8.31,7.05-3.28,1.3-6.88,1.57-10.82.8-3.94-.76-8-2.54-12.19-5.33-4.25-2.83-7.47-5.91-9.68-9.24s-3.34-6.76-3.4-10.28c-.06-3.52,1.04-6.99,3.31-10.38,2.27-3.4,5.04-5.75,8.31-7.04,3.28-1.3,6.88-1.57,10.8-.82,3.92.75,8.01,2.55,12.26,5.38Zm-4.58,6.87c-1.64-1.09-3.26-1.89-4.88-2.4-1.61-.51-3.16-.7-4.63-.59-1.48.11-2.85.54-4.12,1.3-1.27.75-2.36,1.81-3.27,3.18l-.73,1.09c-.89,1.33-1.43,2.73-1.63,4.17-.2,1.45-.06,2.87.4,4.28.47,1.41,1.24,2.75,2.33,4.05,1.09,1.29,2.45,2.49,4.09,3.58,1.64,1.09,3.26,1.89,4.85,2.38,1.6.5,3.14.69,4.63.59,1.49-.1,2.86-.53,4.1-1.27,1.24-.75,2.31-1.79,3.2-3.12l.73-1.09c.91-1.36,1.48-2.77,1.7-4.22.22-1.45.09-2.88-.39-4.3s-1.26-2.76-2.33-4.05c-1.07-1.28-2.43-2.47-4.07-3.56Z" style="fill:#fff; stroke-width:0px;"/><path d="m243.25,802.62l-25.54,27.63-12.77-11.81,6.36-16.39c.23-.68.57-1.51,1.01-2.5.44-.98.9-1.99,1.37-3.01.48-1.03.89-1.94,1.25-2.76l-.28-.26c-.68.41-1.49.88-2.44,1.39-.95.51-1.92,1.02-2.9,1.53-.98.5-1.86.95-2.62,1.34l-15.84,7.62-12.41-11.47,25.54-27.63,8.15,7.54-13.18,14.25c-.52.56-1.11,1.19-1.76,1.87s-1.31,1.35-1.95,1.99c-.64.64-1.19,1.21-1.64,1.69l.32.3c.63-.36,1.39-.78,2.27-1.25.88-.47,1.76-.95,2.62-1.42s1.63-.86,2.31-1.17l18.96-8.91,7.47,6.9-7.36,19.64c-.38.94-.77,1.89-1.18,2.85-.41.96-.81,1.84-1.19,2.66s-.68,1.47-.89,1.97l.32.3c.32-.4.76-.91,1.31-1.54.56-.63,1.16-1.31,1.82-2.05.66-.73,1.32-1.46,1.99-2.19l13.18-14.25,7.71,7.13Z" style="fill:#fff; stroke-width:0px;"/><path d="m195.2,756.05l-29.33,23.56-18.15-22.6c-1.55-1.93-2.48-3.96-2.78-6.08-.3-2.12-.03-4.18.81-6.19.84-2.01,2.24-3.8,4.2-5.38,1.96-1.58,4.03-2.56,6.22-2.96,2.18-.4,4.28-.21,6.28.57,2,.78,3.78,2.13,5.33,4.06l11.13,13.86,9.34-7.5,6.95,8.66Zm-22.73,4.02l-9.21-11.47c-1.03-1.28-2.11-2.01-3.26-2.18-1.15-.18-2.29.19-3.43,1.1-.77.62-1.29,1.29-1.56,2.03-.27.74-.33,1.5-.15,2.3.17.8.6,1.62,1.29,2.47l9.21,11.47,7.12-5.72Z" style="fill:#fff; stroke-width:0px;"/><path d="m152.35,695.51c2.58,4.32,4.15,8.47,4.71,12.44.56,3.97.11,7.56-1.35,10.77-1.46,3.21-3.95,5.85-7.46,7.94-3.51,2.09-7.02,3.02-10.54,2.78-3.52-.24-6.89-1.55-10.11-3.94-3.22-2.38-6.12-5.74-8.7-10.06-2.61-4.38-4.2-8.56-4.75-12.51-.55-3.96-.1-7.54,1.37-10.75,1.46-3.21,3.95-5.85,7.46-7.94,3.51-2.09,7.02-3.01,10.54-2.78,3.52.24,6.88,1.54,10.1,3.92,3.22,2.37,6.13,5.75,8.74,10.13Zm-7.09,4.23c-1.01-1.69-2.13-3.11-3.37-4.26-1.24-1.15-2.55-2-3.93-2.53-1.38-.54-2.8-.74-4.28-.6-1.47.13-2.91.62-4.32,1.46l-1.13.67c-1.38.82-2.47,1.84-3.27,3.06-.8,1.22-1.29,2.56-1.48,4.03-.18,1.47-.07,3.02.36,4.66.42,1.64,1.14,3.3,2.15,4.99,1.01,1.69,2.13,3.11,3.35,4.24,1.23,1.14,2.54,1.98,3.93,2.53,1.39.55,2.81.76,4.25.62,1.45-.14,2.86-.62,4.24-1.44l1.13-.67c1.41-.84,2.53-1.87,3.35-3.08.83-1.21,1.33-2.56,1.5-4.05.18-1.48.06-3.04-.35-4.66-.41-1.62-1.13-3.28-2.13-4.97Z" style="fill:#fff; stroke-width:0px;"/><path d="m126.98,645.05c1.18,2.82,2.12,5.53,2.81,8.13.69,2.6,1.01,5,.94,7.2-.06,2.2-.64,4.14-1.71,5.82-1.08,1.68-2.77,3-5.1,3.97-.07.03-.15.06-.25.11-.1.04-.21.07-.32.08l-4.23-10.09c.15-.02.29-.05.44-.09.14-.04.3-.09.46-.16,1.04-.44,1.69-1.17,1.95-2.21.26-1.04.21-2.31-.15-3.82-.36-1.51-.94-3.22-1.74-5.14-.32-.77-.68-1.56-1.08-2.37-.4-.8-.81-1.56-1.26-2.29-.44-.72-.91-1.35-1.41-1.87-.5-.52-1-.89-1.5-1.09s-1.02-.19-1.56.03c-.71.3-1.11.91-1.21,1.84-.1.93,0,2.12.3,3.55.3,1.43.7,3.01,1.18,4.72s.95,3.51,1.39,5.38c.45,1.87.77,3.73.97,5.58.2,1.85.18,3.6-.08,5.25s-.86,3.13-1.82,4.44c-.95,1.31-2.34,2.34-4.15,3.1-1.85.77-3.63.98-5.35.61-1.72-.37-3.36-1.21-4.94-2.53s-3.06-3.03-4.44-5.14c-1.38-2.11-2.63-4.51-3.76-7.2-1.15-2.76-1.98-5.35-2.48-7.77-.5-2.42-.65-4.61-.47-6.56.19-1.96.75-3.63,1.69-5.03.93-1.4,2.28-2.47,4.02-3.2l.71-.3,4.16,9.94-.4.17c-.71.3-1.21.86-1.51,1.7-.3.84-.37,1.9-.2,3.2.17,1.29.59,2.77,1.29,4.41.83,1.98,1.64,3.56,2.43,4.73.79,1.17,1.52,1.97,2.19,2.4.67.43,1.28.53,1.82.31.67-.28,1.04-.89,1.1-1.83.06-.93-.06-2.11-.38-3.52-.31-1.41-.71-2.97-1.19-4.69s-.96-3.51-1.43-5.39c-.47-1.88-.81-3.73-1.02-5.56-.21-1.83-.2-3.56.04-5.21.24-1.64.81-3.11,1.72-4.4.9-1.29,2.25-2.3,4.03-3.05,2.79-1.17,5.38-1.31,7.77-.41s4.56,2.59,6.51,5.07c1.95,2.49,3.69,5.54,5.21,9.17Z" style="fill:#fff; stroke-width:0px;"/><path d="m115.89,619.55l-41.12-8.15-3.2-11.99,31.58-27.57,3.12,11.68-5.08,4.3,5.19,19.44,6.54,1.2,2.96,11.09Zm-18.34-13.78l-3.27-12.26-6.52,5.25c-.28.23-.69.54-1.25.96-.55.41-1.13.85-1.74,1.31-.61.47-1.18.88-1.71,1.25-.52.37-.91.66-1.15.87l.1.37c.7.08,1.52.18,2.46.31.94.13,1.84.24,2.69.33.86.09,1.56.2,2.12.31l8.27,1.3Z" style="fill:#fff; stroke-width:0px;"/><path d="m101.6,562.23l-37.34,4.61-3.78-30.67c-.25-2.03-.09-3.9.49-5.63.58-1.72,1.49-3.15,2.75-4.28,1.26-1.13,2.81-1.81,4.65-2.04,1.63-.2,3.06-.08,4.29.35,1.23.44,2.27,1.11,3.11,2.01s1.52,1.93,2.03,3.08l.22-.03c.12-1.45.48-2.78,1.08-3.99.6-1.21,1.5-2.22,2.68-3.03,1.19-.81,2.68-1.32,4.49-1.55,2.13-.26,4.02.03,5.64.88,1.63.85,2.95,2.09,3.96,3.73,1.01,1.64,1.65,3.54,1.92,5.71l3.8,30.83Zm-23.94-8.23l-1.87-15.2c-.1-.83-.34-1.52-.72-2.06-.38-.54-.86-.94-1.44-1.2-.58-.26-1.25-.34-2.01-.25-1.05.13-1.85.6-2.39,1.4-.54.8-.75,1.75-.62,2.83l1.89,15.36,7.17-.88Zm14.71-1.81l-1.99-16.12c-.14-1.16-.58-2.06-1.3-2.71-.72-.65-1.73-.89-3.04-.73-.69.08-1.28.32-1.79.69-.5.38-.87.89-1.1,1.54-.23.65-.29,1.42-.19,2.28l1.97,15.96,7.43-.92Z" style="fill:#fff; stroke-width:0px;"/><path d="m96,508.24l-37.62-.24.07-11.1,28.66.18.15-24.17,8.97.06-.22,35.27Z" style="fill:#fff; stroke-width:0px;"/><path d="m96.79,462.59l-37.34-4.62,4.8-38.86,8.2,1.01-3.44,27.79,6.3.78,3-24.32,7.92.98-3,24.31,6.73.83,3.49-28.22,8.2,1.01-4.86,39.29Z" style="fill:#fff; stroke-width:0px;"/><path d="m131.83,329.73c-2.16,4.79-4.62,8.47-7.41,11.06-2.78,2.59-5.85,4.09-9.19,4.5-3.34.41-6.96-.25-10.85-2.01-5.69-2.56-9.24-6.37-10.66-11.43-1.42-5.06-.55-11.11,2.63-18.16,1.77-3.92,3.91-7.11,6.44-9.58,2.53-2.46,5.24-4.05,8.14-4.76,2.9-.71,5.81-.41,8.74.9l-4.44,9.87c-1.43-.64-2.84-.77-4.24-.38-1.39.39-2.71,1.23-3.95,2.51-1.24,1.28-2.31,2.94-3.22,4.97-1.08,2.39-1.58,4.59-1.49,6.58.08,2,.65,3.74,1.7,5.23,1.05,1.49,2.52,2.66,4.41,3.52l1.25.56c1.9.85,3.76,1.18,5.58.98s3.51-.92,5.05-2.16c1.54-1.25,2.83-3.03,3.88-5.36.99-2.19,1.58-4.2,1.78-6.01.19-1.81-.01-3.36-.63-4.66-.62-1.3-1.62-2.26-3.02-2.89l4.35-9.67c2.83,1.27,4.94,3.2,6.33,5.79,1.4,2.59,2.01,5.63,1.85,9.14-.16,3.51-1.17,7.32-3.02,11.44Z" style="fill:#fff; stroke-width:0px;"/><path d="m158.15,281.02c-2.66,4.19-5.46,7.27-8.42,9.23-2.95,1.97-6.02,2.89-9.21,2.77-3.18-.12-6.41-1.21-9.67-3.28l-16.81-10.66,5.95-9.38,16.4,10.4c2.83,1.8,5.54,2.39,8.13,1.79,2.58-.6,4.8-2.37,6.66-5.29,1.86-2.92,2.51-5.69,1.95-8.28-.55-2.6-2.25-4.79-5.08-6.59l-16.39-10.4,5.98-9.42,16.81,10.66c3.26,2.07,5.63,4.52,7.09,7.35,1.47,2.83,1.93,6.01,1.4,9.53-.53,3.53-2.13,7.38-4.78,11.57Z" style="fill:#fff; stroke-width:0px;"/><path d="m190.93,236.51c-1.98,2.34-3.97,4.41-5.96,6.2-2,1.8-3.99,3.17-5.98,4.11-1.99.94-3.98,1.32-5.96,1.12-1.98-.2-3.93-1.11-5.86-2.73-.05-.05-.12-.11-.21-.18-.08-.07-.16-.15-.21-.25l7.06-8.35c.09.12.18.24.28.35.1.11.22.22.36.34.86.73,1.82.97,2.86.73,1.04-.24,2.15-.87,3.34-1.87,1.18-1,2.45-2.3,3.79-3.89.54-.64,1.08-1.32,1.62-2.04.53-.72,1.02-1.44,1.47-2.16.44-.72.79-1.42,1.03-2.1.24-.68.34-1.29.29-1.83-.04-.54-.29-1-.74-1.37-.58-.49-1.32-.57-2.19-.24-.88.33-1.89.96-3.02,1.88-1.14.92-2.36,1.99-3.67,3.2-1.31,1.21-2.69,2.44-4.15,3.69-1.46,1.25-2.97,2.38-4.53,3.41-1.56,1.02-3.13,1.8-4.71,2.32-1.58.52-3.18.66-4.78.4-1.6-.25-3.15-1.02-4.65-2.29-1.53-1.29-2.52-2.79-2.98-4.48-.45-1.69-.45-3.54,0-5.55.45-2,1.3-4.1,2.56-6.29,1.25-2.19,2.82-4.39,4.7-6.62,1.93-2.28,3.86-4.2,5.79-5.74,1.93-1.55,3.8-2.68,5.63-3.4,1.83-.72,3.58-.99,5.25-.79,1.67.2,3.23.91,4.68,2.13l.58.5-6.96,8.23-.33-.28c-.58-.49-1.32-.69-2.2-.57-.88.11-1.86.54-2.94,1.27-1.08.74-2.19,1.79-3.35,3.15-1.39,1.64-2.42,3.08-3.11,4.32-.69,1.23-1.07,2.25-1.14,3.04-.08.8.11,1.38.56,1.76.56.47,1.26.52,2.13.15.86-.37,1.85-1.01,2.96-1.94,1.11-.92,2.32-1.99,3.63-3.2,1.31-1.21,2.69-2.45,4.15-3.72,1.46-1.27,2.95-2.42,4.49-3.44,1.53-1.02,3.08-1.8,4.65-2.33,1.57-.53,3.14-.69,4.69-.47,1.56.22,3.08.95,4.55,2.2,2.31,1.95,3.61,4.2,3.9,6.74.29,2.54-.23,5.24-1.55,8.1-1.33,2.87-3.26,5.8-5.8,8.81Z" style="fill:#fff; stroke-width:0px;"/><path d="m221.11,203.77l-19.34-21.15-12.03,11-6.05-6.62,32.28-29.53,6.05,6.62-12.03,11,19.34,21.15-8.23,7.53Z" style="fill:#fff; stroke-width:0px;"/><path d="m267.43,167.15c-4.13,2.87-8.16,4.72-12.09,5.56-3.92.84-7.54.63-10.84-.6-3.3-1.24-6.11-3.54-8.44-6.89-2.33-3.35-3.49-6.79-3.5-10.32,0-3.52,1.07-6.98,3.23-10.36,2.16-3.38,5.3-6.51,9.44-9.37,4.19-2.91,8.25-4.78,12.16-5.6,3.91-.82,7.51-.62,10.81.62,3.3,1.24,6.11,3.54,8.44,6.89,2.33,3.36,3.49,6.79,3.5,10.32,0,3.53-1.07,6.97-3.21,10.34-2.14,3.37-5.31,6.51-9.51,9.42Zm-4.71-6.78c1.62-1.12,2.96-2.34,4.02-3.65,1.06-1.31,1.81-2.68,2.25-4.09.44-1.41.54-2.85.31-4.31-.24-1.46-.82-2.86-1.75-4.21l-.75-1.08c-.91-1.32-2.01-2.33-3.28-3.05-1.27-.72-2.65-1.11-4.12-1.2-1.48-.08-3.02.14-4.62.68-1.6.54-3.21,1.36-4.83,2.49-1.62,1.12-2.95,2.33-4,3.64-1.05,1.3-1.8,2.67-2.25,4.09-.45,1.42-.56,2.85-.32,4.28.24,1.43.82,2.81,1.73,4.12l.75,1.08c.94,1.35,2.04,2.39,3.3,3.13,1.27.74,2.65,1.15,4.14,1.22,1.49.07,3.03-.15,4.62-.68,1.59-.52,3.19-1.35,4.81-2.47Z" style="fill:#fff; stroke-width:0px;"/><path d="m297.43,146.47l-16.27-33.92,15.68-7.52,12.89,11.95c.55.47,1.2,1.08,1.95,1.85.75.77,1.52,1.57,2.3,2.39.78.82,1.48,1.54,2.1,2.17l.34-.17c-.13-.78-.26-1.71-.39-2.78-.13-1.07-.25-2.16-.35-3.26-.1-1.1-.2-2.08-.28-2.93l-1.25-17.53,15.24-7.31,16.27,33.92-10.01,4.8-8.4-17.5c-.33-.69-.69-1.47-1.09-2.33-.39-.86-.77-1.71-1.13-2.55-.36-.84-.68-1.55-.97-2.14l-.39.19c.1.72.21,1.58.32,2.57.12,1,.23,1.98.36,2.95.12.97.2,1.83.24,2.58l1.3,20.91-9.17,4.4-15.55-14.08c-.74-.7-1.48-1.41-2.21-2.15-.74-.74-1.42-1.43-2.03-2.09-.62-.65-1.12-1.17-1.5-1.55l-.39.19c.25.44.57,1.04.95,1.79.38.75.79,1.56,1.23,2.44.44.88.88,1.76,1.3,2.65l8.4,17.5-9.47,4.54Z" style="fill:#fff; stroke-width:0px;"/><path d="m358.84,119.27l-12.21-35.59,10.5-3.6,12.21,35.59-10.5,3.6Z" style="fill:#fff; stroke-width:0px;"/><path d="m379.78,111.83l-.9-3.78,16.82-30.2-21.07,5.01-1.91-8.03,39.26-9.34.9,3.78-16.92,30.22,23.2-5.52,1.91,8.03-41.29,9.82Z" style="fill:#fff; stroke-width:0px;"/><path d="m428.61,100.49l14.66-39.27,12.35-1.23,22.13,35.6-12.03,1.2-3.43-5.7-20.03,2-2.23,6.27-11.43,1.14Zm16.55-15.89l12.62-1.26-4.13-7.28c-.18-.31-.43-.77-.74-1.38-.32-.61-.66-1.25-1.02-1.93-.36-.68-.68-1.31-.96-1.88-.28-.58-.5-1-.68-1.28l-.38.04c-.19.68-.42,1.47-.7,2.38-.28.91-.53,1.78-.76,2.6-.23.83-.44,1.51-.65,2.04l-2.61,7.95Z" style="fill:#fff; stroke-width:0px;"/><path d="m487.49,95.59l1.38-37.6,30.88,1.13c2.04.08,3.87.53,5.48,1.38,1.61.84,2.87,1.97,3.79,3.39.91,1.42,1.34,3.06,1.27,4.92-.06,1.64-.4,3.03-1.03,4.18-.63,1.15-1.45,2.06-2.48,2.76-1.03.69-2.15,1.2-3.37,1.52v.22c1.4.34,2.66.91,3.76,1.7,1.1.79,1.96,1.83,2.57,3.13.61,1.3.88,2.86.81,4.68-.08,2.15-.67,3.96-1.76,5.44-1.09,1.47-2.53,2.58-4.31,3.32-1.78.74-3.76,1.07-5.95.99l-31.04-1.13Zm11.38-7.52l16.23.59c1.17.04,2.12-.24,2.88-.85.75-.61,1.15-1.57,1.2-2.88.03-.69-.11-1.32-.4-1.88-.29-.56-.74-1-1.35-1.34-.61-.33-1.35-.51-2.22-.55l-16.07-.59-.27,7.49Zm.54-14.81l15.3.56c.84.03,1.55-.1,2.15-.39.59-.29,1.07-.7,1.41-1.23.35-.54.54-1.19.56-1.95.04-1.06-.29-1.92-1-2.58-.71-.66-1.61-1.02-2.7-1.06l-15.47-.57-.26,7.21Z" style="fill:#fff; stroke-width:0px;"/><path d="m541.71,98.69l6.07-37.13,10.96,1.79-4.62,28.28,23.86,3.9-1.45,8.85-34.81-5.69Z" style="fill:#fff; stroke-width:0px;"/><path d="m586.59,106.68l10.58-36.11,37.58,11.01-2.32,7.92-26.87-7.87-1.78,6.09,23.51,6.89-2.24,7.66-23.51-6.89-1.91,6.51,27.29,8-2.32,7.93-38-11.13Z" style="fill:#fff; stroke-width:0px;"/><path d="m694.1,150.07l20.74-31.4,26.1,17.24c2.28,1.51,3.86,3.22,4.72,5.15.87,1.93,1.17,3.91.92,5.95-.25,2.04-.98,3.97-2.19,5.8-1.31,1.98-2.97,3.47-4.99,4.47-2.02,1-4.28,1.36-6.79,1.05l-1.51,16.18-10.5-6.93,1.7-13.89-12.05-7.96-6.9,10.45-9.26-6.12Zm20.69-11.18l13.78,9.1c1.12.74,2.24,1,3.35.77,1.11-.23,2.04-.9,2.78-2.03.48-.73.75-1.46.79-2.2.05-.73-.11-1.42-.48-2.05-.37-.64-.93-1.2-1.69-1.71l-13.78-9.1-4.76,7.21Z" style="fill:#fff; stroke-width:0px;"/><path d="m739.6,181.37l24.74-28.35,29.5,25.75-5.43,6.22-21.1-18.41-4.17,4.78,18.46,16.11-5.25,6.02-18.46-16.11-4.46,5.11,21.43,18.7-5.43,6.22-29.83-26.03Z" style="fill:#fff; stroke-width:0px;"/><path d="m791.74,232.61c-3.26-3.74-5.41-7.3-6.46-10.69-1.05-3.39-1.06-6.6-.04-9.62,1.02-3.02,2.99-5.8,5.9-8.34l15-13.09,7.3,8.37-14.63,12.76c-2.53,2.21-3.87,4.63-4.02,7.28-.15,2.65.91,5.28,3.18,7.89,2.28,2.61,4.74,4.02,7.39,4.22,2.65.21,5.23-.79,7.76-3l14.63-12.76,7.33,8.41-15,13.09c-2.91,2.54-5.93,4.11-9.06,4.71-3.13.6-6.31.15-9.54-1.37-3.23-1.51-6.48-4.14-9.74-7.87Z" style="fill:#fff; stroke-width:0px;"/><path d="m825.09,276.68c-1.68-2.56-3.1-5.05-4.25-7.48-1.16-2.42-1.9-4.73-2.24-6.9-.34-2.18-.13-4.19.62-6.03.75-1.85,2.18-3.46,4.28-4.84.06-.04.14-.09.23-.15.09-.06.19-.1.3-.13l6,9.14c-.14.05-.28.11-.41.17-.13.06-.27.15-.43.25-.94.62-1.45,1.46-1.51,2.53-.06,1.07.22,2.31.85,3.73.62,1.42,1.51,3,2.65,4.74.46.7.96,1.41,1.49,2.13.54.72,1.09,1.39,1.65,2.02.57.63,1.14,1.16,1.73,1.58.58.42,1.14.69,1.67.8.53.11,1.04,0,1.53-.31.64-.42.92-1.1.86-2.03-.07-.94-.38-2.08-.95-3.43-.56-1.35-1.24-2.83-2.02-4.43-.79-1.6-1.57-3.27-2.35-5.03-.78-1.75-1.44-3.52-1.98-5.31-.54-1.78-.83-3.51-.88-5.18-.05-1.67.28-3.23.97-4.7.7-1.46,1.87-2.73,3.52-3.81,1.68-1.1,3.39-1.63,5.15-1.58s3.53.57,5.32,1.58c1.79,1,3.56,2.42,5.3,4.24,1.74,1.82,3.41,3.95,5.01,6.39,1.64,2.5,2.93,4.89,3.86,7.18.93,2.29,1.49,4.41,1.66,6.37.17,1.96-.07,3.71-.74,5.26-.66,1.55-1.79,2.84-3.37,3.88l-.64.42-5.91-9.01.37-.24c.64-.42,1.03-1.07,1.17-1.95.14-.88.01-1.94-.39-3.18-.4-1.24-1.09-2.61-2.07-4.1-1.18-1.8-2.27-3.2-3.25-4.21-.99-1.01-1.85-1.66-2.59-1.96s-1.36-.29-1.84.03c-.61.4-.86,1.06-.75,2,.11.93.45,2.06,1.01,3.39.57,1.33,1.24,2.79,2.03,4.39.79,1.6,1.58,3.28,2.39,5.04.8,1.76,1.48,3.52,2.02,5.28.54,1.76.85,3.47.91,5.13.06,1.66-.23,3.2-.88,4.63-.65,1.43-1.79,2.68-3.4,3.74-2.53,1.66-5.05,2.27-7.57,1.83-2.52-.44-4.96-1.71-7.33-3.79-2.37-2.08-4.64-4.77-6.8-8.06Z" style="fill:#fff; stroke-width:0px;"/><path d="m840.68,299.74l41.92.45,5.35,11.2-25.98,32.9-5.21-10.9,4.2-5.16-8.68-18.16-6.65.03-4.95-10.36Zm20.56,10.18l5.47,11.45,5.45-6.36c.23-.27.58-.66,1.05-1.17.46-.51.96-1.04,1.47-1.61.52-.57,1-1.08,1.45-1.54s.77-.81.97-1.07l-.17-.35c-.7.05-1.53.1-2.47.15-.95.05-1.85.11-2.71.17s-1.57.09-2.14.08l-8.37.24Z" style="fill:#fff; stroke-width:0px;"/><path d="m865.26,353.42l35.86-11.38,9.34,29.45c.62,1.95.8,3.82.55,5.62-.25,1.8-.89,3.37-1.92,4.71-1.03,1.34-2.43,2.29-4.2,2.85-1.56.5-2.99.64-4.28.44-1.29-.2-2.43-.67-3.43-1.41-1-.74-1.85-1.62-2.56-2.66l-.21.07c.15,1.44.04,2.82-.33,4.12-.37,1.3-1.07,2.46-2.08,3.47-1.02,1.01-2.4,1.79-4.13,2.34-2.05.65-3.96.71-5.71.18-1.76-.53-3.28-1.51-4.58-2.94-1.29-1.42-2.27-3.18-2.93-5.27l-9.39-29.61Zm10.92,8.19l4.91,15.48c.35,1.11.94,1.92,1.77,2.42.83.5,1.87.55,3.12.16.66-.21,1.2-.54,1.63-1.01.43-.46.69-1.03.8-1.72.11-.69.03-1.44-.23-2.28l-4.86-15.33-7.14,2.27Zm14.13-4.48l4.63,14.6c.25.8.62,1.43,1.09,1.89.47.46,1.02.77,1.64.91.62.15,1.3.11,2.03-.13,1.01-.32,1.7-.92,2.09-1.81s.42-1.85.09-2.9l-4.68-14.75-6.88,2.18Z" style="fill:#fff; stroke-width:0px;"/><path d="m880.59,405.52l37.01-6.75,1.99,10.92-28.19,5.15,4.34,23.78-8.82,1.61-6.33-34.7Z" style="fill:#fff; stroke-width:0px;"/><path d="m888.12,450.5l37.56-2.2,2.29,39.09-8.24.48-1.64-27.95-6.33.37,1.43,24.46-7.97.47-1.43-24.46-6.77.4,1.67,28.39-8.24.48-2.32-39.53Z" style="fill:#fff; stroke-width:0px;"/><path d="m884.08,566.35l36.44,9.38-4.34,16.84-17.45,2.17c-.71.12-1.6.22-2.67.3-1.07.08-2.18.15-3.3.22s-2.13.14-3.02.21l-.09.37c.69.4,1.48.9,2.38,1.49.9.59,1.81,1.2,2.72,1.83.91.63,1.72,1.19,2.42,1.67l14.23,10.33-4.21,16.36-36.44-9.38,2.77-10.75,18.8,4.84c.74.19,1.57.41,2.48.67.91.25,1.81.51,2.68.78.87.26,1.63.48,2.26.64l.11-.42c-.62-.38-1.34-.85-2.18-1.41-.84-.55-1.67-1.1-2.49-1.63-.82-.53-1.53-1.03-2.13-1.48l-16.84-12.47,2.54-9.85,20.78-2.84c1.01-.12,2.03-.22,3.07-.31,1.04-.09,2.01-.16,2.91-.21.9-.05,1.62-.1,2.16-.15l.11-.42c-.5-.09-1.16-.23-1.98-.43-.82-.19-1.7-.4-2.66-.63-.96-.23-1.91-.46-2.87-.71l-18.8-4.84,2.62-10.17Z" style="fill:#fff; stroke-width:0px;"/><path d="m856.27,651.53c2.02-4.61,4.47-8.3,7.38-11.07,2.9-2.77,6.08-4.49,9.54-5.17,3.46-.68,7.06-.2,10.8,1.44s6.54,3.95,8.39,6.95c1.85,3,2.75,6.5,2.69,10.52-.06,4.01-1.1,8.32-3.12,12.93-2.04,4.68-4.51,8.39-7.41,11.14-2.9,2.75-6.07,4.47-9.53,5.14-3.46.68-7.06.2-10.8-1.44-3.74-1.64-6.54-3.95-8.39-6.95-1.85-3-2.75-6.5-2.7-10.49.05-4,1.11-8.33,3.15-13.01Zm7.57,3.31c-.79,1.8-1.29,3.54-1.51,5.22-.22,1.68-.14,3.23.23,4.67.37,1.43,1.03,2.71,2,3.83.96,1.12,2.2,2,3.7,2.66l1.2.53c1.47.64,2.93.93,4.39.88,1.46-.06,2.84-.44,4.14-1.14s2.5-1.7,3.58-3c1.08-1.3,2.02-2.85,2.81-4.65.79-1.8,1.29-3.54,1.5-5.19.21-1.66.13-3.22-.23-4.67-.36-1.45-1.02-2.72-1.97-3.82-.95-1.09-2.17-1.96-3.64-2.6l-1.2-.53c-1.5-.66-2.99-.97-4.46-.93-1.47.03-2.86.41-4.17,1.13-1.31.72-2.5,1.72-3.58,3-1.08,1.28-2.01,2.82-2.8,4.63Z" style="fill:#fff; stroke-width:0px;"/><path d="m841.21,684.78l31.94,19.89-11.1,17.83c-2.45,3.93-5.18,6.93-8.19,9.01-3.01,2.08-6.18,3.13-9.51,3.16-3.33.03-6.69-1.01-10.1-3.13-3.44-2.14-5.86-4.71-7.29-7.7-1.42-2.99-1.87-6.3-1.33-9.91.54-3.62,2.03-7.39,4.47-11.32l11.1-17.83Zm1.14,13.79l-4.88,7.85c-.93,1.49-1.57,2.94-1.92,4.38-.35,1.43-.45,2.8-.27,4.11.17,1.31.64,2.53,1.39,3.67.75,1.14,1.79,2.12,3.13,2.95l1.07.67c1.33.83,2.66,1.33,4,1.49,1.33.17,2.63.04,3.88-.39,1.25-.42,2.44-1.11,3.57-2.06,1.13-.95,2.15-2.17,3.08-3.66l4.89-7.84-17.92-11.16Z" style="fill:#fff; stroke-width:0px;"/><path d="m796.73,747.5c3.19-3.8,6.37-6.48,9.56-8.04,3.19-1.56,6.35-2.07,9.49-1.53,3.14.54,6.19,2.05,9.15,4.54l15.25,12.79-7.13,8.5-14.88-12.48c-2.57-2.16-5.17-3.11-7.82-2.85-2.64.26-5.08,1.71-7.3,4.37-2.23,2.65-3.24,5.3-3.03,7.95.21,2.65,1.59,5.05,4.16,7.21l14.87,12.48-7.17,8.55-15.25-12.79c-2.96-2.48-4.98-5.22-6.06-8.22-1.08-3-1.12-6.21-.13-9.64.99-3.43,3.08-7.04,6.27-10.84Z" style="fill:#fff; stroke-width:0px;"/><path d="m773.53,774.23l25.49,27.68-8.17,7.52-19.41-21.08-17.78,16.37-6.08-6.6,25.95-23.89Z" style="fill:#fff; stroke-width:0px;"/><path d="m742.75,802.47l6.72,41.38-10.12,7.19-36.86-19.97,9.85-7,5.8,3.26,16.41-11.66-1.17-6.55,9.36-6.65Zm-6.51,22l-10.34,7.35,7.2,4.28c.31.18.75.46,1.33.83.58.37,1.19.76,1.84,1.17.65.41,1.24.8,1.76,1.16.53.36.93.62,1.22.78l.31-.22c-.17-.68-.36-1.49-.57-2.41-.21-.92-.42-1.8-.63-2.64-.21-.83-.36-1.53-.45-2.1l-1.67-8.21Z" style="fill:#fff; stroke-width:0px;"/><path d="m694.04,835.92l17.33,33.4-27.77,14.4c-2.43,1.26-4.69,1.8-6.8,1.62-2.11-.18-3.99-.88-5.65-2.09-1.66-1.21-2.99-2.79-4-4.73-1.09-2.1-1.58-4.28-1.48-6.53.1-2.25.9-4.4,2.39-6.44l-13.39-9.19,11.16-5.79,11.3,8.25,12.82-6.65-5.77-11.12,9.86-5.11Zm-.31,23.51l-14.66,7.61c-1.2.62-1.97,1.47-2.31,2.55-.34,1.08-.2,2.22.42,3.42.4.78.91,1.36,1.53,1.76.62.4,1.29.59,2.03.58.73-.01,1.5-.23,2.31-.65l14.66-7.61-3.98-7.67Z" style="fill:#fff; stroke-width:0px;"/><rect x="262.41" y="588.16" width="20.15" height="5.66" transform="translate(-377.3 554.99) rotate(-62.08)" style="fill:#00e5a3; stroke-width:0px;"/><rect x="698.97" y="600.33" width="19.77" height="5.66" transform="translate(-194.79 826.07) rotate(-54.25)" style="fill:#00e5a3; stroke-width:0px;"/><rect x="259.31" y="389.16" width="18.26" height="5.66" transform="translate(-142.46 630.46) rotate(-85.72)" style="fill:#ff5353; stroke-width:0px;"/><rect x="495.97" y="306.7" width="18.52" height="5.66" transform="translate(-70.52 169.6) rotate(-17.83)" style="fill:#00e5a3; stroke-width:0px;"/><rect x="699.6" y="381.04" width="18.52" height="5.66" transform="translate(-83.49 235.47) rotate(-17.83)" style="fill:#ff5353; stroke-width:0px;"/><path d="m488.17,577.23c-3.11-.02-6.21-.05-9.29-.11l.07-4.24c3.07.05,6.15.09,9.24.11l-.03,4.24Zm11.15,0l-.03-4.24c3.09-.03,6.17-.07,9.24-.12l.08,4.24c-3.08.06-6.18.1-9.29.13Zm-31.58-.37c-3.11-.1-6.21-.21-9.28-.34l.18-4.24c3.06.13,6.14.25,9.24.34l-.13,4.24Zm52.01-.05l-.14-4.24c3.1-.1,6.17-.22,9.24-.36l.19,4.24c-3.08.14-6.17.26-9.28.36Zm-72.44-.85c-3.11-.18-6.2-.37-9.27-.59l.29-4.23c3.05.21,6.13.41,9.22.58l-.24,4.23Zm92.86-.09l-.25-4.24c3.09-.18,6.17-.38,9.22-.6l.3,4.23c-3.07.22-6.16.42-9.27.61Zm-113.25-1.36c-3.11-.26-6.2-.54-9.26-.84l.41-4.22c3.04.3,6.11.58,9.2.84l-.36,4.23Zm133.64-.13l-.37-4.23c3.09-.27,6.16-.56,9.2-.86l.42,4.22c-3.06.31-6.15.59-9.25.86Zm-153.99-1.89c-3.1-.35-6.18-.73-9.23-1.12l.54-4.21c3.03.39,6.08.76,9.17,1.11l-.48,4.21Zm174.33-.18l-.49-4.21c3.08-.36,6.14-.74,9.17-1.13l.55,4.21c-3.05.4-6.12.78-9.23,1.14Zm-194.61-2.46c-3.1-.45-6.16-.92-9.19-1.42l.68-4.19c3.01.49,6.05.96,9.13,1.4l-.61,4.2Zm214.89-.22l-.62-4.2c3.08-.46,6.12-.93,9.12-1.43l.69,4.19c-3.03.5-6.09.98-9.19,1.44Zm-235.08-3.08c-3.09-.56-6.13-1.14-9.14-1.75l.83-4.16c2.98.6,6,1.17,9.07,1.73l-.76,4.17Zm255.26-.28l-.77-4.17c3.06-.57,6.08-1.15,9.06-1.76l.84,4.16c-3,.61-6.05,1.2-9.13,1.77Zm-275.33-3.78c-3.07-.69-6.09-1.4-9.06-2.13l1.01-4.12c2.94.72,5.94,1.42,8.98,2.1l-.93,4.14Zm295.38-.34l-.94-4.14c3.04-.69,6.03-1.4,8.97-2.14l1.03,4.12c-2.97.74-5.99,1.46-9.06,2.16Zm-315.27-4.6c-3.05-.84-6.04-1.7-8.96-2.58l1.23-4.06c2.89.87,5.84,1.72,8.85,2.55l-1.12,4.09Zm335.14-.41l-1.14-4.09c3.01-.84,5.96-1.7,8.84-2.58l1.24,4.06c-2.92.89-5.9,1.77-8.95,2.61Zm-354.75-5.58c-3.01-1.02-5.95-2.07-8.79-3.14l1.5-3.97c2.8,1.06,5.69,2.09,8.66,3.1l-1.36,4.02Zm374.34-.5l-1.38-4.01c2.97-1.02,5.85-2.07,8.64-3.14l1.52,3.96c-2.84,1.09-5.77,2.15-8.78,3.19Zm-393.54-6.84c-2.94-1.27-5.8-2.58-8.51-3.9l1.86-3.81c2.65,1.29,5.45,2.58,8.33,3.82l-1.68,3.9Zm412.7-.61l-1.71-3.88c2.88-1.27,5.67-2.57,8.3-3.89l1.89,3.8c-2.69,1.34-5.54,2.68-8.48,3.97Zm-431.16-8.58c-2.83-1.64-5.51-3.34-7.97-5.03l2.41-3.49c2.37,1.63,4.95,3.27,7.69,4.85l-2.13,3.67Zm449.55-.79l-2.17-3.64c2.71-1.62,5.28-3.28,7.62-4.95l2.46,3.45c-2.43,1.73-5.1,3.46-7.91,5.14Zm-466.47-11.26c-2.51-2.26-4.73-4.59-6.61-6.92l3.3-2.66c1.74,2.16,3.81,4.32,6.15,6.43l-2.84,3.15Zm483.21-1.07l-2.91-3.09c2.29-2.16,4.3-4.37,5.96-6.58l3.39,2.55c-1.81,2.4-3.97,4.79-6.43,7.11Zm-495.85-15.82c-1.3-3.16-2.05-6.39-2.24-9.6l4.24-.25c.16,2.75.81,5.52,1.93,8.24l-3.92,1.61Zm507.91-1.52l-4-1.41c.97-2.75,1.46-5.54,1.46-8.31,0-.36,0-.72-.03-1.07l4.24-.19c.02.42.03.84.03,1.26,0,3.25-.57,6.53-1.71,9.73Zm-504.39-18.33l-3.98-1.46c1.06-2.89,2.6-5.79,4.58-8.61l3.47,2.44c-1.76,2.52-3.13,5.08-4.07,7.63Zm499.32-2.31c-1.15-2.46-2.71-4.94-4.64-7.37l3.32-2.64c2.13,2.69,3.87,5.45,5.16,8.22l-3.84,1.79Zm-488.21-13.29l-2.9-3.1c2.18-2.04,4.65-4.07,7.33-6.04l2.52,3.42c-2.55,1.88-4.89,3.8-6.95,5.73Zm476.12-1.75c-2.14-1.86-4.55-3.71-7.15-5.51l2.42-3.48c2.72,1.89,5.24,3.84,7.5,5.79l-2.78,3.21Zm-460.07-9.97l-2.16-3.65c2.58-1.53,5.36-3.05,8.24-4.52l1.93,3.78c-2.8,1.43-5.5,2.91-8,4.39Zm443.67-1.33c-2.54-1.44-5.26-2.87-8.09-4.26l1.87-3.81c2.9,1.42,5.7,2.89,8.31,4.37l-2.09,3.69Zm-425.73-7.76l-1.7-3.89c2.76-1.21,5.67-2.41,8.64-3.57l1.54,3.95c-2.93,1.14-5.76,2.31-8.48,3.5Zm407.63-1.06c-2.75-1.16-5.59-2.3-8.53-3.41l1.5-3.97c2.99,1.13,5.89,2.29,8.68,3.47l-1.65,3.91Zm-388.78-6.24l-1.38-4.01c2.88-.99,5.84-1.96,8.87-2.9l1.26,4.05c-2.99.93-5.91,1.89-8.75,2.86Zm369.86-.86c-2.85-.95-5.78-1.88-8.77-2.79l1.23-4.06c3.04.92,6,1.86,8.89,2.83l-1.34,4.02Zm-350.5-5.12l-1.14-4.09c2.94-.82,5.95-1.61,9-2.39l1.04,4.11c-3.03.77-6,1.55-8.91,2.36Zm331.1-.71c-2.92-.79-5.9-1.56-8.93-2.3l1.02-4.12c3.06.75,6.07,1.53,9.02,2.33l-1.11,4.1Zm-311.42-4.23l-.94-4.14c2.99-.68,6.02-1.33,9.1-1.97l.86,4.15c-3.05.63-6.06,1.28-9.02,1.95Zm291.71-.59c-2.96-.65-5.97-1.29-9.03-1.9l.84-4.16c3.08.62,6.12,1.26,9.11,1.92l-.91,4.14Zm-271.83-3.49l-.77-4.17c3.02-.56,6.07-1.09,9.16-1.61l.7,4.18c-3.07.51-6.1,1.05-9.09,1.6Zm251.92-.48c-3-.54-6.03-1.06-9.1-1.55l.68-4.19c3.09.5,6.15,1.03,9.17,1.57l-.75,4.18Zm-231.88-2.84l-.62-4.2c3.04-.45,6.11-.88,9.21-1.29l.56,4.2c-3.08.41-6.13.84-9.15,1.29Zm211.83-.39c-3.02-.43-6.07-.85-9.15-1.25l.54-4.21c3.1.4,6.17.82,9.21,1.25l-.6,4.2Zm-191.68-2.27l-.49-4.21c3.05-.35,6.13-.69,9.24-1.01l.43,4.22c-3.09.32-6.15.65-9.18,1Zm171.52-.3c-3.04-.34-6.1-.66-9.19-.96l.41-4.22c3.11.31,6.19.63,9.24.97l-.47,4.22Zm-151.3-1.74l-.36-4.23c3.06-.26,6.15-.51,9.26-.74l.31,4.23c-3.09.23-6.16.47-9.21.74Zm131.07-.23c-3.05-.25-6.12-.49-9.21-.7l.3-4.23c3.11.22,6.2.45,9.27.71l-.35,4.23Zm-110.8-1.24l-.25-4.23c3.07-.18,6.17-.34,9.28-.49l.2,4.24c-3.09.14-6.17.31-9.23.49Zm90.52-.15c-3.06-.17-6.13-.32-9.23-.45l.18-4.24c3.11.13,6.21.29,9.28.46l-.23,4.24Zm-70.21-.77l-.14-4.24c3.08-.1,6.18-.18,9.29-.25l.09,4.24c-3.1.06-6.18.15-9.24.25Zm49.9-.08c-3.06-.09-6.14-.16-9.24-.22l.07-4.24c3.11.05,6.21.13,9.29.22l-.12,4.24Zm-29.57-.32l-.03-4.24c1.99-.01,3.99-.02,6-.02h3.29s-.02,4.25-.02,4.25h-3.27c-1.99,0-3.98,0-5.97.01Z" style="fill:#fff; stroke-width:0px;"/><path d="m351.29,698.28c-9.2,0-16.92-2.38-22.84-7.34-35.39-29.69,9.16-139.08,101.42-249.02,43.72-52.1,91.26-95.72,133.87-122.81,43.27-27.52,76.57-34.73,93.76-20.31,17.19,14.42,15.87,48.47-3.72,95.87-19.29,46.67-53.98,101.06-97.7,153.16-76.82,91.55-159.01,150.46-204.79,150.46Zm283.66-402.44c-17.27,0-41.11,9.15-68.94,26.84-42.25,26.87-89.45,70.18-132.89,121.96-89.21,106.32-134.95,215.35-101.94,243.05,5.2,4.37,12.07,6.46,20.28,6.46,43.84,0,126.23-59.5,201.37-149.05,43.45-51.78,77.9-105.78,97.03-152.05,18.55-44.88,20.34-78.05,4.91-91-4.95-4.16-11.65-6.2-19.82-6.2Z" style="fill:#fff; stroke-width:0px;"/><path d="m634.88,698.2c-18.14,0-42.45-9.32-71.15-27.57-42.61-27.1-90.15-70.71-133.87-122.81-43.72-52.1-78.41-106.49-97.7-153.16-19.59-47.4-20.91-81.44-3.72-95.87,35.39-29.69,135.37,33.17,227.63,143.12,92.26,109.95,136.8,219.33,101.42,249.02-5.79,4.86-13.41,7.26-22.62,7.26Zm-283.42-402.61c-8.21,0-15.07,2.09-20.28,6.46-15.43,12.95-13.64,46.11,4.91,91,19.12,46.28,53.58,100.27,97.03,152.05,43.45,51.78,90.64,95.09,132.89,121.96,40.98,26.06,73.33,33.59,88.76,20.64,33-27.7-12.73-136.73-101.94-243.05-75.14-89.55-157.53-149.05-201.37-149.05Z" style="fill:#fff; stroke-width:0px;"/><path d="m701.54,545.67c0,7.3-5.92,13.22-13.22,13.22s-13.22-5.92-13.22-13.22,5.92-13.22,13.22-13.22,13.22,5.92,13.22,13.22Z" style="fill:#ffd747; stroke-width:0px;"/><path d="m337.6,622.46c0,7.3-5.92,13.22-13.22,13.22s-13.22-5.92-13.22-13.22,5.92-13.22,13.22-13.22,13.22,5.92,13.22,13.22Z" style="fill:#ffd747; stroke-width:0px;"/><path d="m459.29,340.52c0,7.3-5.92,13.22-13.22,13.22s-13.22-5.92-13.22-13.22,5.92-13.22,13.22-13.22,13.22,5.92,13.22,13.22Z" style="fill:#ffd747; stroke-width:0px;"/><g style="clip-path:url(#uuid-5ec9b52e-2024-4470-9056-02b7dbc39fbe);"><path d="m598.75,999.44h-207.55c63.2-35.32,82.52-98.76,84.95-107.58.19-.67.27-1.03.27-1.03h16.17c.03.33.06.68.09,1.03,1.51,17.23,6.01,52.68,6.01,52.68,0,0,4.32-35.46,6.3-52.68.04-.35.08-.7.11-1.03.76-6.7,12.24-10.33,14.49,0,.1.34.19.69.29,1.03,12.94,45.85,54.7,91.91,78.87,107.58Z" style="fill:#ad1c00; stroke-width:0px;"/><path d="m419.25,999.44c5.67-7.27,17.93-23,25.81-33.16,27.1-34.92,32.74-68.68,33.54-74.42.08-.56.11-.86.11-.86,0,0,.16-.07.43-.17,2.04-.8,10.69-3.95,11.01,0h0c.03.34.06.69.08,1.03,2.22,27.9,4.48,78.09,5.7,107.58h-76.68Z" style="fill:#ed481b; stroke-width:0px;"/><path d="m563.95,999.44h-65.17c2.36-28.87,6.44-77.77,9.25-107.58.06-.6.11-1.2.17-1.78.27-2.85,9,.09,9,.09,0,0,.13.6.37,1.7.62,2.8,2,8.82,3.87,16.13,11.3,43.97,35.09,80.69,42.51,91.45Z" style="fill:#ed481b; stroke-width:0px;"/><path d="m487.2,890.83l-.02,1.03-2.71,107.58h-39.71c28.9-48.91,35.78-99.78,36.7-107.58.08-.68.11-1.03.11-1.03h5.63Z" style="fill:#ff9f06; stroke-width:0px;"/><path d="m542.93,999.44h-36.99l5.08-107.58.05-1.03h3.81s.04.35.12,1.03c.99,7.99,8.09,61.06,27.93,107.58Z" style="fill:#ff9f06; stroke-width:0px;"/><polygon points="516.49 882.39 512.74 882.39 508.99 882.39 502.96 889.74 502.96 891.86 512.74 891.86 522.52 891.86 522.52 889.74 516.49 882.39" style="fill:#192682; stroke-width:0px;"/><polygon points="487.84 882.39 484.09 882.39 480.34 882.39 474.31 889.74 474.31 891.86 484.09 891.86 493.87 891.86 493.87 889.74 487.84 882.39" style="fill:#192682; stroke-width:0px;"/><polygon points="567.57 897.55 533.53 875.61 533.53 822.74 567.57 885.33 567.57 897.55" style="fill:#192682; stroke-width:0px;"/><polygon points="464.74 822.74 464.74 875.61 463.29 876.54 430.7 897.55 430.7 885.32 463.29 825.41 464.74 822.74" style="fill:#fff; stroke-width:0px;"/><path d="m533.52,770.99v113.09h-68.78v-113.09c0-14.04,2.5-27.86,7.28-40.85,1.02-2.77,2.14-5.5,3.37-8.2,3.15-6.92,6.97-13.55,11.44-19.78,1.8-2.52,3.71-4.98,5.72-7.36l6.57-7.82h0s6.58,7.82,6.58,7.82c2.01,2.39,3.92,4.84,5.72,7.36,4.47,6.24,8.29,12.87,11.44,19.78,1.23,2.7,2.35,5.43,3.37,8.2,4.78,12.98,7.28,26.81,7.28,40.85Z" style="fill:#a0ccea; stroke-width:0px;"/><path d="m480.42,884.08h-15.68v-113.09c0-14.04,2.5-27.86,7.28-40.85,1.02-2.77,2.14-5.5,3.37-8.2,3.15-6.92,6.97-13.55,11.44-19.78,1.8-2.52,3.71-4.98,5.72-7.36l6.57-7.82c-7.02,17.09-16.65,50.14-18.84,73.75-1.42,15.32.14,123.35.14,123.35Z" style="fill:#fff; stroke-width:0px;"/><polygon points="499.81 785.3 490.75 791.6 493.94 781.04 485.15 774.37 496.18 774.14 499.81 763.72 503.43 774.14 514.47 774.37 505.67 781.04 508.87 791.6 499.81 785.3" style="fill:#05082d; stroke-width:0px;"/></g><path d="m674.06,101.69c-4.57,12.5-8.23,14.21-20.73,9.64,12.5,4.57,14.21,8.23,9.64,20.73,4.57-12.5,8.23-14.21,20.73-9.64-12.5-4.57-14.21-8.23-9.64-20.73Z" style="fill:#fff; stroke-width:0px;"/><path d="m96.18,363.76c-3.03,12.97-6.45,15.1-19.42,12.07,12.97,3.03,15.1,6.45,12.07,19.42,3.03-12.97,6.45-15.1,19.42-12.07-12.97-3.03-15.1-6.45-12.07-19.42Z" style="fill:#fff; stroke-width:0px;"/><circle cx="494" cy="494.95" r="51" transform="translate(-205.29 494.28) rotate(-45)" style="fill:#ce3d0b; stroke-width:0px;"/><path d="m497.88,545.81c-1.98.15-3.98.18-6,.1-28.14-1.17-50-24.94-48.83-53.08,1.17-28.14,24.94-50,53.08-48.83,2.02.08,4.02.29,5.97.6-25.44,1.91-45.99,22.62-47.08,48.73-1.09,26.11,17.66,48.46,42.85,52.48Z" style="fill:#ed481b; stroke-width:0px;"/><circle cx="508.98" cy="507.14" r="13.84" transform="translate(-204.04 418.51) rotate(-37.81)" style="fill:#9e2a0a; stroke-width:0px;"/><circle cx="487.87" cy="524.07" r="4.4" transform="translate(-213.51 668.06) rotate(-58.65)" style="fill:#9e2a0a; stroke-width:0px;"/><circle cx="522.82" cy="477.29" r="4.72" transform="translate(-33.78 914.72) rotate(-80.56)" style="fill:#9e2a0a; stroke-width:0px;"/><path d="m474.15,469.07c-.37,1.02-1.5,1.55-2.53,1.18s-1.55-1.5-1.18-2.53,1.5-1.55,2.53-1.18,1.55,1.5,1.18,2.53Z" style="fill:#9e2a0a; stroke-width:0px;"/><circle cx="497.87" cy="458.49" r="5.59" transform="translate(24.51 942.23) rotate(-88.26)" style="fill:#9e2a0a; stroke-width:0px;"/><circle cx="461.63" cy="504.21" r="10.92" transform="translate(-128.47 159.09) rotate(-17.2)" style="fill:#ce3d0b; stroke-width:0px;"/></g></svg>