<?xml version="1.0" encoding="UTF-8"?><svg id="uuid-db59f36f-17ea-4807-aa1b-f41a1212ef62" xmlns="http://www.w3.org/2000/svg" viewBox="0 0 823.99 970.81"><g id="uuid-1bcd9aec-b12b-4cf2-865f-d2008497ac29"><path d="m412,0C183.41,5.44-.17,192.53,0,422.42l.12,505.49c.01,23.69,19.22,42.9,42.91,42.9h737.92c23.69,0,42.89-19.21,42.9-42.9l.14-505.49C824.15,192.53,640.57,5.44,412,0Zm92.17,52.79c.53.14,1.06.28,1.59.43,22.53,6.26,44.22,14.51,64.87,24.55l-66.46-24.98Z" style="fill:#05082d; stroke-width:0px;"/><path d="m299.32,504.6l-174.96,336.66h-33.25c-4.89,0-9.61-.64-14.11-1.85-3.79-1.02-7.42-2.44-10.83-4.22-8.97-4.66-16.47-11.76-21.63-20.42-.07-.12-.15-.25-.22-.37-.15-.26-.3-.52-.44-.78-.4-.69-.77-1.38-1.11-2.08-.7-1.38-1.35-2.79-1.92-4.23,0-.01-.01-.04-.02-.06-.78-1.94-1.44-3.92-2-5.96-1.22-4.52-1.88-9.27-1.88-14.18l-.04-101.15v-61.12s-.01-5.03-.01-5.03l-.02-48.55,205.63-123.47,9.4,9.4,7.8,7.8,20.84,20.84,8.96,8.96,9.83,9.82Z" style="fill:#ed481b; stroke-width:0px;"/><path d="m289.49,494.78l-223.32,340.41c-8.97-4.66-16.47-11.76-21.63-20.42-.07-.12-.15-.25-.22-.37-.15-.26-.3-.52-.44-.78-.4-.69-.77-1.38-1.11-2.08-.7-1.38-1.35-2.79-1.92-4.23,0-.01-.01-.04-.02-.06-.78-1.94-1.44-3.92-2-5.96-1.22-4.52-1.88-9.27-1.88-14.18l-.04-101.15v-61.12s214.99-167.65,214.99-167.65l7.8,7.8,20.84,20.84,8.96,8.96Z" style="fill:#9e2a0a; stroke-width:0px;"/><path d="m280.53,485.82L38.81,801.29c-1.22-4.52-1.88-9.27-1.88-14.18l-.04-101.15v-3.6l222.79-217.37,20.84,20.84Z" style="fill:#ea751c; stroke-width:0px;"/><path d="m783.96,373.89c-52.34,18.42-110.51,20.54-166.32,3.21t-.02-.01c-.9-.27-1.81-.57-2.71-.86-1.11-.36-2.22-.72-3.33-1.1-1.11-.37-2.22-.75-3.33-1.15-1.11-.38-2.21-.79-3.32-1.2-1-.36-1.99-.73-2.99-1.11-.35-.12-.68-.26-1.01-.38-.88-.35-1.75-.68-2.63-1.04-1.1-.43-2.2-.88-3.29-1.33-2.2-.9-4.39-1.84-6.58-2.81-4.64-2.06-9.18-4.23-13.63-6.51-2.97-1.53-5.91-3.1-8.8-4.72-1.44-.8-2.87-1.63-4.31-2.47-2.85-1.67-5.66-3.38-8.43-5.15-1.38-.88-2.75-1.78-4.12-2.68-4.08-2.71-8.08-5.53-11.98-8.44-2.6-1.94-5.16-3.92-7.67-5.95-5.02-4.06-9.87-8.27-14.56-12.63-1-.94-2-1.89-2.99-2.85-.16-.15-.32-.3-.48-.46-1.15-1.12-2.28-2.23-3.4-3.37-4.52-4.52-8.83-9.19-12.95-13.99-2.06-2.41-4.08-4.84-6.07-7.3-2.96-3.7-5.82-7.49-8.56-11.34-3.44-4.8-6.71-9.72-9.82-14.72-1.04-1.68-2.05-3.36-3.05-5.05h0c-2.01-3.43-3.95-6.9-5.8-10.4h0c-1.37-2.58-2.69-5.16-3.96-7.76-.43-.88-.84-1.74-1.26-2.62h0c-1.35-2.84-2.64-5.69-3.89-8.56-.4-.91-.79-1.83-1.15-2.74-.23-.53-.46-1.06-.68-1.59h0c-1.2-2.9-2.34-5.82-3.43-8.76-1.09-2.94-2.13-5.88-3.12-8.86-12.02-36.24-16.29-75.14-11.76-114,.26-2.25.54-4.5.88-6.75.16-1.13.33-2.27.51-3.41.36-2.25.73-4.5,1.15-6.75.41-2.26.84-4.5,1.32-6.75h0c.48-2.26.97-4.5,1.51-6.74.27-1.13.54-2.26.83-3.38,1.5-6.02,3.23-12.02,5.21-17.99h.01c20.6,2.2,40.71,6.02,60.21,11.35.53.14,1.06.28,1.59.43,22.53,6.25,44.22,14.51,64.87,24.55,44.93,21.85,84.97,52.2,118.01,88.95,30.15,33.52,54.49,72.37,71.43,114.97,11.6,29.14,19.73,60.05,23.89,92.19Z" style="fill:#ce3d0b; stroke-width:0px;"/><path d="m617.61,377.08c-.9-.27-1.81-.57-2.71-.86-1.11-.36-2.22-.72-3.33-1.1-1.11-.37-2.22-.75-3.33-1.15-1.11-.38-2.21-.79-3.32-1.2-1-.36-1.99-.73-2.99-1.11-.35-.12-.68-.26-1.01-.38-.88-.35-1.75-.68-2.63-1.04-1.1-.43-2.2-.88-3.29-1.33-2.2-.9-4.39-1.84-6.58-2.81-4.64-2.06-9.18-4.23-13.63-6.51-2.97-1.53-5.91-3.1-8.8-4.72-1.44-.8-2.87-1.63-4.31-2.47-2.85-1.67-5.66-3.38-8.43-5.15-1.38-.88-2.75-1.78-4.12-2.68-4.08-2.71-8.08-5.53-11.98-8.44-2.6-1.94-5.16-3.92-7.67-5.95-5.02-4.05-9.87-8.25-14.56-12.63-1-.94-2-1.89-2.99-2.85-.16-.15-.32-.3-.48-.46-1.15-1.12-2.28-2.23-3.4-3.37-4.52-4.52-8.83-9.19-12.95-13.99-2.07-2.41-4.1-4.84-6.07-7.3-2.96-3.7-5.82-7.49-8.56-11.34-3.44-4.8-6.71-9.72-9.82-14.72-1.04-1.68-2.05-3.36-3.05-5.05h0c-2.01-3.43-3.95-6.9-5.8-10.4h0c-1.37-2.58-2.69-5.16-3.96-7.76-.43-.88-.84-1.74-1.26-2.62h0c-1.35-2.84-2.64-5.69-3.89-8.56-.4-.91-.79-1.83-1.15-2.74h-.01c-.23-.53-.46-1.06-.67-1.59h0c-1.2-2.9-2.34-5.82-3.43-8.76-1.1-2.92-2.13-5.88-3.12-8.86-12.02-36.24-16.29-75.14-11.76-114,.26-2.26.56-4.5.88-6.75.16-1.13.33-2.27.51-3.41.36-2.25.73-4.5,1.15-6.75.41-2.26.85-4.5,1.32-6.75h0c.48-2.26.97-4.5,1.51-6.74.27-1.13.54-2.26.83-3.38,1.52-6.02,3.26-12.02,5.22-17.99,20.6,2.2,40.71,6.02,60.21,11.35.53.14,1.06.28,1.59.43-12.61,32.42-18.38,65.96-17.98,98.93.21,17.8,2.23,35.43,5.96,52.66,1.36,6.3,2.95,12.56,4.76,18.74,6.97,23.79,17.26,46.55,30.56,67.56,21.81,34.45,51.73,64.18,88.55,85.97Z" style="fill:#ed481b; stroke-width:0px;"/><path d="m760.07,281.7c-21.52,4.54-44.83-.8-62.59-16.48-28.77-25.43-32.36-68.73-8.85-98.49,30.15,33.52,54.49,72.37,71.43,114.97Z" style="fill:#9e2a0a; stroke-width:0px;"/><path d="m627.91,268.06c-8.37,9.48-22.84,10.37-32.32,2-9.48-8.37-10.37-22.84-2-32.32,8.37-9.48,22.84-10.37,32.32-2,9.48,8.37,10.37,22.84,2,32.32Z" style="fill:#9e2a0a; stroke-width:0px;"/><path d="m564.33,144.31c-19.73,22.33-53.11,25.44-76.54,7.85-1.22-.9-2.41-1.88-3.57-2.9-23.49-20.75-25.7-56.62-4.95-80.11,6.95-7.86,15.59-13.34,24.9-16.36.53.14,1.06.28,1.59.43,22.53,6.25,44.22,14.51,64.87,24.55,12.23,20.63,10.43,47.61-6.3,66.54Z" style="fill:#ce3d0b; stroke-width:0px;"/><path d="m787.16,424.02l-.12,363.09c0,29.91-24.26,54.15-54.17,54.15H91.11c-4.89,0-9.61-.64-14.11-1.85-3.79-1.02-7.42-2.44-10.83-4.22-8.97-4.66-16.47-11.76-21.63-20.42-.07-.12-.15-.25-.22-.37-.15-.26-.3-.52-.44-.78-.4-.69-.77-1.38-1.11-2.08-.7-1.38-1.35-2.79-1.92-4.23,0-.01-.01-.04-.02-.06-.78-1.94-1.44-3.92-2-5.96-1.22-4.52-1.88-9.27-1.88-14.18l-.04-101.15v-61.12s-.01-5.03-.01-5.03l-.02-48.55v-12.76l-.04-134.48c-.15-209.35,167.02-379.71,375.17-384.67,10.77.26,21.43.95,31.95,2.08h.01c20.6,2.2,40.71,6.02,60.21,11.35.53.14,1.06.28,1.59.43,22.53,6.25,44.22,14.51,64.87,24.55,44.93,21.85,84.97,52.2,118.01,88.95,30.15,33.52,54.49,72.37,71.43,114.97,11.6,29.14,19.73,60.05,23.89,92.19,2.13,16.41,3.22,33.15,3.21,50.14Z" style="fill:none; stroke:#fff; stroke-miterlimit:10; stroke-width:16.6px;"/><polygon points="309.88 488.84 304.66 483.62 257.2 436.16 238.6 438 235.65 440.95 291.49 496.79 305.09 510.39 308.04 507.44 309.88 488.84" style="fill:#192682; stroke-width:0px;"/><polygon points="359.81 580.93 342.99 503.09 416.49 429.59 376.81 563.94 359.81 580.93" style="fill:#192682; stroke-width:0px;"/><polygon points="320.85 333.95 247.35 407.44 244.04 406.73 169.51 390.62 186.51 373.62 315.13 335.64 320.85 333.95" style="fill:#fff; stroke-width:0px;"/><path d="m488.44,357.62l-157.24,157.24-95.63-95.63,157.24-157.24c19.52-19.52,42.21-35.27,66.91-46.67,5.27-2.44,10.63-4.67,16.09-6.71,14-5.24,28.53-9.14,43.41-11.6,6.01-1.01,12.08-1.76,18.19-2.29l20.01-1.73h.01l-1.73,20.02c-.52,6.12-1.28,12.18-2.29,18.19-2.46,14.88-6.36,29.42-11.6,43.41-2.04,5.46-4.27,10.82-6.71,16.09-11.41,24.7-27.15,47.39-46.67,66.91Z" style="fill:#a0ccea; stroke-width:0px;"/><path d="m257.38,441.02l-21.8-21.8,157.24-157.24c19.52-19.52,42.21-35.27,66.91-46.67,5.27-2.44,10.63-4.67,16.09-6.71,14-5.24,28.53-9.14,43.41-11.6,6.01-1.01,12.08-1.76,18.19-2.29l20.01-1.73c-33.53,14.01-92.86,46.56-128.74,76.34-23.28,19.33-171.32,171.7-171.32,171.7Z" style="fill:#fff; stroke-width:0px;"/><polygon points="421.67 330.64 400.31 326.81 419.44 316.56 416.49 295.06 432.14 310.09 451.67 300.64 442.22 320.17 457.25 335.83 435.75 332.87 425.5 352 421.67 330.64" style="fill:#05082d; stroke-width:0px;"/><path d="m695.31,516.76c0,39.55-8.48,48.03-48.03,48.03,39.55,0,48.03,8.48,48.03,48.03,0-39.55,8.48-48.03,48.03-48.03-39.55,0-48.03-8.48-48.03-48.03Z" style="fill:#fff; stroke-width:0px;"/><path d="m504.17,723.03c0,27.39-5.87,33.25-33.25,33.25,27.39,0,33.25,5.87,33.25,33.25,0-27.39,5.87-33.25,33.25-33.25-27.39,0-33.25-5.87-33.25-33.25Z" style="fill:#fff; stroke-width:0px;"/><circle cx="199.77" cy="192.99" r="12.38" transform="translate(-33.95 343.07) rotate(-76.72)" style="fill:#fff; stroke-width:0px;"/><path d="m468.55,571.07v-6.79h10.29v-15.73h-10.29v-4.75c1.8-.09,3.63-.35,5.49-.77s3.68-.98,5.45-1.67c1.77-.7,3.37-1.48,4.79-2.35h3.16v25.27h9.45v6.79h-28.34Z" style="fill:#fff; stroke-width:0px;"/><path d="m520.91,571.63c-2.98,0-5.5-.39-7.56-1.16-2.06-.77-3.73-1.89-5-3.35-1.27-1.46-2.2-3.2-2.77-5.21-.57-2.02-.86-4.3-.86-6.84s.29-4.82.86-6.84c.57-2.02,1.49-3.75,2.75-5.21,1.26-1.46,2.92-2.57,4.98-3.35,2.06-.78,4.58-1.16,7.56-1.16s5.49.39,7.54,1.16c2.05.78,3.71,1.89,4.98,3.35,1.27,1.46,2.2,3.2,2.77,5.21.57,2.02.86,4.3.86,6.84s-.29,4.83-.86,6.84c-.57,2.02-1.49,3.75-2.75,5.21-1.26,1.46-2.91,2.58-4.96,3.35-2.05.78-4.56,1.16-7.54,1.16Zm0-5.82c1.8,0,3.23-.36,4.28-1.09,1.05-.73,1.81-1.81,2.28-3.23.46-1.43.7-3.23.7-5.4v-2.14c0-2.17-.23-3.97-.7-5.4-.47-1.43-1.23-2.49-2.28-3.19-1.06-.7-2.48-1.05-4.28-1.05s-3.19.35-4.26,1.05c-1.07.7-1.85,1.76-2.33,3.19-.48,1.43-.72,3.23-.72,5.4v2.14c0,2.17.24,3.97.72,5.4.48,1.43,1.26,2.51,2.33,3.23,1.07.73,2.49,1.09,4.26,1.09Z" style="fill:#fff; stroke-width:0px;"/><path d="m562.14,571.63c-2.98,0-5.5-.39-7.56-1.16-2.06-.77-3.73-1.89-5-3.35-1.27-1.46-2.2-3.2-2.77-5.21-.57-2.02-.86-4.3-.86-6.84s.29-4.82.86-6.84c.57-2.02,1.49-3.75,2.75-5.21,1.26-1.46,2.92-2.57,4.98-3.35,2.06-.78,4.58-1.16,7.56-1.16s5.49.39,7.54,1.16c2.05.78,3.71,1.89,4.98,3.35,1.27,1.46,2.2,3.2,2.77,5.21.57,2.02.86,4.3.86,6.84s-.29,4.83-.86,6.84c-.57,2.02-1.49,3.75-2.75,5.21-1.26,1.46-2.91,2.58-4.96,3.35-2.05.78-4.56,1.16-7.54,1.16Zm0-5.82c1.8,0,3.23-.36,4.28-1.09,1.05-.73,1.81-1.81,2.28-3.23.46-1.43.7-3.23.7-5.4v-2.14c0-2.17-.23-3.97-.7-5.4-.47-1.43-1.23-2.49-2.28-3.19-1.06-.7-2.48-1.05-4.28-1.05s-3.19.35-4.26,1.05c-1.07.7-1.85,1.76-2.33,3.19-.48,1.43-.72,3.23-.72,5.4v2.14c0,2.17.24,3.97.72,5.4.48,1.43,1.26,2.51,2.33,3.23,1.07.73,2.49,1.09,4.26,1.09Z" style="fill:#fff; stroke-width:0px;"/><circle cx="524.32" cy="556.36" r="91.64" style="fill:none; stroke:#fff; stroke-miterlimit:10; stroke-width:11.3px;"/><path d="m53.63,929.16v-40.59h42.24v8.91h-30.21v6.84h26.43v8.61h-26.43v7.32h30.68v8.91h-42.72Z" style="fill:#fff; stroke-width:0px;"/><path d="m106.79,929.16l19.23-20.95-17.46-19.65h15.52l9.5,11.39h.59l9.85-11.39h14.34l-17.46,19.12,19.17,21.48h-15.52l-11.21-13.22h-.65l-11.5,13.22h-14.4Z" style="fill:#fff; stroke-width:0px;"/><path d="m184.02,929.16v-30.92h-17.58v-9.68h47.2v9.68h-17.58v30.92h-12.04Z" style="fill:#fff; stroke-width:0px;"/><path d="m225.97,929.16v-40.59h33.75c2.95,0,5.39.61,7.32,1.83,1.93,1.22,3.38,2.82,4.37,4.81.98,1.99,1.48,4.16,1.48,6.52,0,2.56-.61,4.89-1.83,6.99-1.22,2.1-3.05,3.77-5.49,4.99l8.26,15.46h-13.57l-6.73-13.51h-15.58v13.51h-11.98Zm11.98-22.36h17.82c1.45,0,2.62-.43,3.48-1.3.86-.86,1.3-2.03,1.3-3.48,0-.94-.2-1.76-.59-2.45-.39-.69-.94-1.21-1.65-1.56-.71-.35-1.55-.53-2.54-.53h-17.82v9.32Z" style="fill:#fff; stroke-width:0px;"/><path d="m286.85,929.16v-40.59h42.24v8.91h-30.21v6.84h26.43v8.61h-26.43v7.32h30.68v8.91h-42.72Z" style="fill:#fff; stroke-width:0px;"/><path d="m343.67,929.16v-40.59h18.76l6.96,17.64c.31.71.66,1.61,1.03,2.71.37,1.1.75,2.23,1.12,3.39.37,1.16.72,2.19,1.03,3.1h.41c.24-.83.54-1.79.91-2.89.37-1.1.77-2.21,1.18-3.33s.78-2.11,1.09-2.98l6.96-17.64h18.23v40.59h-11.98v-20.95c0-.83,0-1.75.03-2.77.02-1.02.05-2.03.09-3.01.04-.98.06-1.83.06-2.54h-.47c-.24.75-.53,1.63-.88,2.65-.35,1.02-.7,2.04-1.03,3.04-.33,1-.66,1.88-.97,2.62l-8.5,20.95h-10.97l-8.56-20.95c-.39-1.02-.78-2.06-1.15-3.13-.37-1.06-.71-2.05-1-2.98-.29-.92-.54-1.66-.74-2.21h-.47c.04.55.07,1.28.09,2.18.02.91.04,1.89.06,2.95.02,1.06.03,2.12.03,3.19v20.95h-11.33Z" style="fill:#fff; stroke-width:0px;"/><path d="m417.3,929.16v-40.59h42.24v8.91h-30.21v6.84h26.43v8.61h-26.43v7.32h30.68v8.91h-42.71Z" style="fill:#fff; stroke-width:0px;"/><path d="m519.61,929.87c-3.3,0-6.39-.2-9.26-.59s-5.39-1.08-7.55-2.07c-2.16-.98-3.86-2.36-5.07-4.13-1.22-1.77-1.83-4.01-1.83-6.73v-.29c0-.12.02-.24.06-.35h11.8c-.04.16-.07.32-.09.47-.02.16-.03.33-.03.53,0,1.22.46,2.17,1.39,2.86.92.69,2.21,1.17,3.86,1.45s3.6.41,5.84.41c.9,0,1.84-.03,2.8-.09.96-.06,1.9-.16,2.8-.29.9-.14,1.72-.34,2.45-.62.73-.27,1.3-.62,1.71-1.03s.62-.93.62-1.56c0-.83-.44-1.48-1.33-1.98-.88-.49-2.1-.88-3.66-1.18-1.55-.29-3.29-.56-5.19-.8-1.91-.24-3.88-.52-5.93-.86-2.05-.33-4.03-.79-5.96-1.36-1.93-.57-3.66-1.33-5.19-2.27-1.53-.94-2.75-2.16-3.66-3.66-.9-1.49-1.36-3.3-1.36-5.43s.54-4.02,1.62-5.58c1.08-1.55,2.61-2.84,4.57-3.86,1.97-1.02,4.29-1.78,6.96-2.27,2.67-.49,5.58-.74,8.73-.74s6.14.26,8.76.77c2.62.51,4.86,1.27,6.73,2.27s3.3,2.26,4.31,3.78c1,1.51,1.5,3.29,1.5,5.34v.83h-11.62v-.47c0-.83-.35-1.56-1.06-2.21-.71-.65-1.74-1.16-3.1-1.53s-3-.56-4.93-.56c-2.32,0-4.23.15-5.72.44s-2.6.69-3.3,1.18c-.71.49-1.06,1.05-1.06,1.68,0,.79.45,1.41,1.36,1.86.9.45,2.12.82,3.66,1.09,1.53.28,3.25.53,5.16.77,1.91.24,3.89.51,5.96.83,2.06.32,4.05.75,5.96,1.3,1.91.55,3.63,1.29,5.16,2.21,1.54.92,2.75,2.1,3.66,3.54s1.36,3.2,1.36,5.28c0,3.27-.94,5.9-2.83,7.91-1.89,2.01-4.47,3.46-7.76,4.37s-7.05,1.36-11.3,1.36Z" style="fill:#fff; stroke-width:0px;"/><path d="m555,929.16v-40.59h31.27c2.67,0,5,.59,6.99,1.77,1.99,1.18,3.54,2.8,4.66,4.87,1.12,2.06,1.68,4.45,1.68,7.17s-.57,5.12-1.71,7.23c-1.14,2.1-2.71,3.74-4.72,4.9s-4.35,1.74-7.02,1.74h-19.17v12.92h-11.98Zm11.98-21.83h15.87c1.77,0,3.12-.42,4.04-1.27.92-.85,1.39-2.05,1.39-3.63,0-1.06-.22-1.96-.65-2.68-.43-.73-1.04-1.29-1.83-1.68-.79-.39-1.77-.59-2.95-.59h-15.87v9.85Z" style="fill:#fff; stroke-width:0px;"/><path d="m611.7,929.16v-40.59h42.24v8.91h-30.21v6.84h26.43v8.61h-26.43v7.32h30.68v8.91h-42.72Z" style="fill:#fff; stroke-width:0px;"/><path d="m668.52,929.16v-40.59h42.24v8.91h-30.21v6.84h26.43v8.61h-26.43v7.32h30.68v8.91h-42.72Z" style="fill:#fff; stroke-width:0px;"/><path d="m725.34,929.16v-40.59h22.66c4.99,0,9.3.79,12.92,2.36,3.62,1.57,6.39,3.88,8.32,6.9,1.93,3.03,2.89,6.71,2.89,11.03s-.96,8.05-2.89,11.06c-1.93,3.01-4.7,5.3-8.32,6.87-3.62,1.57-7.93,2.36-12.92,2.36h-22.66Zm11.98-8.91h9.97c1.89,0,3.59-.25,5.1-.74,1.51-.49,2.82-1.19,3.92-2.09,1.1-.9,1.96-2.03,2.57-3.36s.92-2.85.92-4.54v-1.36c0-1.69-.31-3.2-.92-4.51-.61-1.32-1.46-2.43-2.57-3.33-1.1-.9-2.41-1.6-3.92-2.09-1.51-.49-3.21-.74-5.1-.74h-9.97v22.77Z" style="fill:#fff; stroke-width:0px;"/></g></svg>