<?xml version="1.0" encoding="UTF-8"?><svg id="uuid-6d1c4ca0-2ca3-48ee-90f5-be84fce71f15" xmlns="http://www.w3.org/2000/svg" viewBox="0 0 910.91 974"><g id="uuid-bc80a29f-bd27-499e-a015-4066b0ce0350"><path d="m910.75,69.28l-181.49-38.97C639.01,10.94,547.27.83,455.46,0c-91.81.83-183.55,10.94-273.8,30.31L.16,69.28,0,507.02c-.18,254.14,202.77,460.96,455.46,466.98,252.69-6.02,455.64-212.84,455.46-466.98l-.16-437.74Z" style="fill:#05082d; stroke-width:0px;"/><path d="m865.64,505.03c.09,122.16-51.93,232.18-135.07,309.03-48.67,45.01-108,78.65-173.79,96.69-32.38,8.89-66.32,14-101.32,14.84-6.37-.15-12.7-.45-18.99-.88-25.27-1.74-49.92-5.7-73.76-11.7-15.34-3.86-30.35-8.56-44.97-14.07-33.23-12.49-64.47-29.08-93.09-49.15-21.77-15.26-42.04-32.54-60.51-51.57t-.01-.01c-73.62-75.77-118.92-179.19-118.85-293.2l.14-394.23,163.46-35.1c81.28-17.44,163.9-26.55,246.58-27.3,82.68.75,165.3,9.86,246.58,27.3l163.46,35.1.14,394.23Z" style="fill:#05082d; stroke-width:0px;"/><path d="m236.44,262.63c0,51.9-11.12,63.02-63.02,63.02,51.9,0,63.02,11.12,63.02,63.02,0-51.9,11.12-63.02,63.02-63.02-51.9,0-63.02-11.12-63.02-63.02Z" style="fill:#fff; stroke-width:0px;"/><path d="m164.13,798.24c18.47,19.03,38.74,36.31,60.51,51.57,28.62,20.07,59.86,36.65,93.09,49.15,14.62,5.5,29.63,10.2,44.97,14.07,23.85,6,48.49,9.96,73.76,11.7,6.3.43,12.62.73,18.99.88,35-.84,68.94-5.95,101.32-14.84,65.78-18.05,125.12-51.69,173.79-96.69,15.84-102.51-25.39-208.49-111.5-272.56-.01,0-.02-.01-.03-.01-.98-.74-1.96-1.47-2.96-2.18-.5-.37-1-.73-1.5-1.07-.94-.68-1.9-1.36-2.85-2.02-1.15-.8-2.3-1.6-3.46-2.37-.51-.36-1.02-.71-1.54-1.03-.96-.65-1.92-1.28-2.9-1.91-.12-.08-.24-.16-.36-.24-1.13-.73-2.26-1.44-3.4-2.15-.38-.25-.76-.49-1.15-.72-1.17-.74-2.34-1.45-3.54-2.17-.05-.03-.1-.07-.15-.09-.71-.42-1.4-.85-2.12-1.26-.71-.41-1.41-.82-2.13-1.24-.77-.44-1.54-.88-2.31-1.31-.77-.43-1.54-.87-2.31-1.29-.02-.02-.03-.03-.05-.03-.1-.08-.21-.12-.3-.17-.01-.01-.03-.02-.04-.02-.51-.29-1.03-.58-1.54-.85-.13-.08-.25-.14-.38-.2-.63-.35-1.26-.68-1.9-1.02-1.69-.91-3.39-1.79-5.1-2.66-.73-.37-1.45-.73-2.19-1.1-.84-.41-1.68-.82-2.52-1.23-2.51-1.22-5.04-2.39-7.56-3.53-1.27-.56-2.54-1.13-3.81-1.67-1.09-.47-2.18-.93-3.28-1.38-1.1-.46-2.18-.9-3.29-1.35-.54-.23-1.07-.44-1.62-.65s-1.09-.42-1.63-.63c-1.11-.44-2.23-.87-3.34-1.28-1.47-.55-2.94-1.09-4.42-1.61h-.01c-2.71-.97-5.43-1.88-8.15-2.75-.64-.21-1.28-.41-1.92-.61-.69-.23-1.38-.44-2.07-.64-.62-.2-1.25-.38-1.87-.56-1.26-.38-2.52-.74-3.78-1.1h-.01c-.84-.24-1.68-.47-2.52-.69-.84-.23-1.68-.46-2.52-.67-.85-.22-1.68-.43-2.53-.65-1.96-.5-3.93-.97-5.9-1.42-10.52-2.42-21.1-4.21-31.7-5.41-3.02-.34-6.05-.63-9.07-.87-23.03-1.85-46.08-.87-68.65,2.8-2.75.44-5.48.93-8.21,1.47-3.3.63-6.58,1.32-9.84,2.07-3,.68-5.97,1.41-8.93,2.19-11.85,3.11-23.51,7-34.88,11.61-1.61.65-3.2,1.31-4.79,2-.94.4-1.89.8-2.83,1.23-.64.27-1.27.55-1.91.85-1.05.47-2.11.94-3.15,1.43-5.58,2.58-11.07,5.34-16.49,8.29-2.71,1.47-5.39,2.98-8.05,4.55-3.18,1.87-6.33,3.8-9.44,5.81-3.4,2.16-6.76,4.41-10.07,6.74-2.54,1.78-5.06,3.6-7.54,5.48-1.24.93-2.47,1.88-3.7,2.83-2.46,1.92-4.89,3.87-7.29,5.87-6,5-11.83,10.27-17.44,15.8-17.98,17.7-33.89,38.09-47.1,61-4.86,8.42-9.25,17-13.15,25.68-1.3,2.9-2.55,5.8-3.76,8.72-1.19,2.92-2.34,5.85-3.44,8.8-1.11,2.93-2.15,5.88-3.14,8.83-1,2.96-1.94,5.94-2.83,8.92-1.33,4.46-2.55,8.93-3.67,13.43h0c-.24,1-.48,1.98-.71,2.96-.17.71-.34,1.41-.49,2.12-.35,1.51-.67,3.02-.99,4.53-.14.65-.27,1.29-.4,1.94-.09.42-.17.86-.26,1.29-.16.79-.31,1.6-.47,2.4-.65,3.39-1.23,6.78-1.74,10.19-.26,1.69-.5,3.4-.73,5.1-.11.85-.22,1.7-.33,2.55-.22,1.7-.41,3.41-.59,5.11-.09.85-.17,1.69-.26,2.55h0c-.18,1.96-.36,3.92-.5,5.87-.04.53-.08,1.06-.12,1.6-.88,12.57-.91,25.15-.12,37.63.07,1.1.13,2.18.22,3.27v.04c.16,2.32.37,4.63.6,6.96h.01Z" style="fill:#ce3d0b; stroke-width:0px;"/><path d="m619.06,541.51s-.02-.01-.03-.01c-131.18-56.47-286.81-6.97-359.91,119.78-2.08,3.61-4.09,7.26-5.99,10.94-17.52,33.6-27.68,69.26-31.01,105.01-2.28,24.35-1.39,48.73,2.52,72.58-21.77-15.26-42.04-32.54-60.51-51.57-1.81-18.31-1.87-36.86-.09-55.36.01,0,0-.01,0-.01,1.31-13.63,3.63-27.24,6.95-40.73h0c1.12-4.5,2.33-8.98,3.67-13.44.89-2.98,1.83-5.96,2.83-8.92,1-2.95,2.04-5.9,3.14-8.84,1.1-2.95,2.25-5.88,3.44-8.8,1.2-2.92,2.45-5.82,3.76-8.72,3.91-8.68,8.29-17.26,13.15-25.68,13.22-22.91,29.12-43.29,47.1-61,5.61-5.53,11.44-10.8,17.44-15.8,2.4-2,4.83-3.96,7.29-5.87,1.23-.96,2.46-1.9,3.7-2.83,2.49-1.88,5-3.7,7.54-5.48,3.31-2.33,6.68-4.58,10.07-6.74,3.11-2.01,6.26-3.94,9.44-5.81,2.66-1.56,5.34-3.08,8.05-4.55,5.42-2.95,10.91-5.71,16.49-8.29,4.19-1.94,8.41-3.78,12.68-5.5,11.37-4.61,23.03-8.5,34.88-11.61,2.96-.78,5.94-1.51,8.93-2.19,3.27-.75,6.54-1.44,9.84-2.07,2.72-.53,5.46-1.02,8.21-1.47,22.56-3.67,45.62-4.64,68.65-2.8,3.03.24,6.06.53,9.07.87,10.6,1.19,21.19,2.98,31.7,5.4,4.5,1.03,8.99,2.17,13.47,3.44h.01c5.96,1.67,11.9,3.56,17.79,5.65h.01c5.9,2.08,11.77,4.38,17.57,6.89,10.18,4.37,20.2,9.4,30.03,15.06,1.42.82,2.84,1.66,4.24,2.51.05.02.1.06.15.09,1.19.72,2.37,1.43,3.54,2.17.39.23.77.47,1.15.72,1.14.71,2.27,1.42,3.4,2.15.12.08.24.16.36.24.98.63,1.94,1.26,2.9,1.91.52.33,1.03.67,1.54,1.03,1.16.77,2.31,1.56,3.46,2.37,2.49,1.73,4.94,3.48,7.35,5.29Z" style="fill:#ed481b; stroke-width:0px;"/><path d="m556.77,910.76c-32.38,8.89-66.32,14-101.32,14.84-6.37-.15-12.7-.45-18.99-.88-.88-.87-1.74-1.76-2.57-2.67-28.91-31.55-26.78-80.58,4.79-109.49,31.56-28.91,80.59-26.78,109.5,4.79,24.06,26.26,26.61,64.62,8.6,93.42Z" style="fill:#9e2a0a; stroke-width:0px;"/><path d="m362.7,913.02c-15.34-3.86-30.35-8.56-44.97-14.07.02-6.64,2.71-13.26,8-18.1,10.04-9.2,25.64-8.52,34.84,1.52,7.92,8.65,8.52,21.4,2.13,30.65Z" style="fill:#9e2a0a; stroke-width:0px;"/><circle cx="637.12" cy="757.49" r="26.43" transform="translate(-62.51 57.32) rotate(-4.91)" style="fill:#9e2a0a; stroke-width:0px;"/><path d="m416.9,590.53c-4.49,4.12-11.48,3.81-15.59-.68-4.12-4.49-3.81-11.48.68-15.59,4.49-4.12,11.48-3.81,15.59.68,4.12,4.49,3.81,11.48-.68,15.59Z" style="fill:#9e2a0a; stroke-width:0px;"/><circle cx="562.04" cy="599.48" r="31.29" transform="translate(-248.58 734.26) rotate(-56.29)" style="fill:#9e2a0a; stroke-width:0px;"/><circle cx="263.69" cy="732.42" r="61.12" transform="translate(-248.99 146.64) rotate(-21.39)" style="fill:#ce3d0b; stroke-width:0px;"/><path d="m865.64,505.03c.09,122.16-51.93,232.18-135.07,309.03-48.67,45.01-108,78.65-173.79,96.69-32.38,8.89-66.32,14-101.32,14.84-6.37-.15-12.7-.45-18.99-.88-25.27-1.74-49.92-5.7-73.76-11.7-15.34-3.86-30.35-8.56-44.97-14.07-33.23-12.49-64.47-29.08-93.09-49.15-21.77-15.26-42.04-32.54-60.51-51.57t-.01-.01c-73.62-75.77-118.92-179.19-118.85-293.2l.14-394.23,163.46-35.1c81.28-17.44,163.9-26.55,246.58-27.3,82.68.75,165.3,9.86,246.58,27.3l163.46,35.1.14,394.23Z" style="fill:none; stroke:#fff; stroke-miterlimit:10; stroke-width:16.57px;"/><path d="m617.03,565.23c40.21-48.57,95.42-85.38,127.12-141.99l-28.75,1.03,63.81-149.21-120.56,93.16-13.84-45.3-41.28,68.82-9.8-27.79c-32.24,59.86-40.46,105.03-52.33,128.76l75.63,72.52Z" style="fill:#ffd747; stroke-width:0px;"/><path d="m653.79,526.17c-.6-.97-1.21-1.94-1.83-2.89-1.23-1.7-4.55-1.57-2.75-4.57,2.14-3.61-2.23-4.53-.12-7,.33-.4.54-1.14.43-1.69-.07-.34-.96-.92-1.29-.82-.56.17-1.09.69-1.4,1.23-.26.46-.2,1.17-.28,1.76-.14.99-.76,1.56-1.62,1.46-1.33-.15-1.26-2.09-1.4-3.5-2.39,2.26-3.06,2.52-1.52,3.8,1.04.87,1.19,1.84.93,3.07-.37,1.83-2.03,1.99-3.38,1.74-1.05-.19-1.26-1.08-.9-1.92.64-1.51.36-2.72-1.05-3.64-.85-.53-.81-1.11-.13-1.65,1.81-1.43,4-1.95,2.34-4.86-.65-1.14-.43-2.04.36-2.72.82-.7.99-1.53.66-2.69-.13-.47.02-1.07.25-1.57l-1.35.91c.08.23.12.49.07.64-.28.78-.7,1.48-1.17,2.38-.86-.04-1.64.05-2.4-.11-.2-.04-.37-.11-.5-.21l-5.97,4.04c.21.08.41.19.6.33,1.95,1.44,2.81-.81,4.15-1.08,2.35-.4,1.91,3.52-1.44,3.22-.88-.07-1.76.09-2.63.15l.02.36c-.36.23-.71.55-1.1.67-.33.1-1.03-.02-1.03-.06-.03-.85-.27-1.71-.17-2.52l-3.45,2.33c.27.1.51.31.73.63.53.72.18,2.66-.36,2.59-.71-.07-1.48-.59-2-1.1-.24-.25-.33-.53-.3-.81l-17.52,11.84c3.89,5.76,7.15,12.33,9.71,19.38,1.22,3.54,2.37,7.16,3.21,10.83.47,1.82.81,3.66,1.15,5.43.12.78.28,1.61.38,2.34.34-.35.67-.69,1.01-1.04.12-.16.24-.32.39-.45.18-.16.36-.33.54-.49.49-.5.97-.99,1.46-1.49.14-.29.31-.59.54-.88,4.66-5.92,9.94-11.38,15.62-16.36-.03-.77-.19-1.54-.69-2.29-.3-.45-.11-1.5.24-2.04.55-.86.3-1.2-.47-1.49-3.37-1.23-2.67-2.76-4.54-3.21-.98-.22-1.29-.77-1.1-1.64.22-.96,1-1.23,1.91-1.1.42.06.82.4,1.23.42.69.03,1.47.09,2.07-.19,1.35-.64,2.78,0,2.81,1.55,0,1.57-.19,3.09-.42,4.64l-.4.09c.29.16.56.43.86.47.99.13,1.98.25,2.98.38.75-.78,1.49-1.57,2.24-2.35-.52-.22-1.04-.42-1.56-.6-1.04-.36-1.48-1.14-1.56-2.12-.09-1.02,1.05-1.43,2.13-.84.35.19.95.41,1.13.25.25-.22.21-.79.25-1.34-.36-2.85-.38-2.93-2.98-2.6-1.15.14-1.86-.25-2.19-1.37-.67-2.27-2.18-2.29-2.42-2.93-.17-.46-.43-1.01-.31-1.41.07-.25.85-.54,1.16-.4,1.06.47,2,.24,2.98-.1.3-.1.9-.09.97.06.69,1.53,2.64,2.14,2.81,4.11.06.71.57.9,1.12.36.56-.55,1.2-1.63,1.62-1.51.82.23,1.47,1.16,2.14,1.87.85.92.83,1.81-.03,2.55-.49.42-1.11.88-.97,1.53.14-.14.27-.29.41-.43,1.04-1.11,2.07-2.23,3.11-3.34Zm-21.56,12.89c.51-.81.69-1.47,1.12-1.73.7-.43,1.35-.17,1.61.67.27.85-.08,1.5-.91,1.68-.43.09-.96-.31-1.82-.61Zm2.84-20.46c-.57.34-1.19.28-1.56-.48-.42-.86,0-1.34.8-2.05.49.24,1.19.34,1.44.75.47.75-.06,1.42-.68,1.78Zm.89,3.1c-.19.72-.27,1.61-.75,2.13-.22.23-1.38-.06-1.78-.44-2.6-2.59-5.44,1.19-5.49-2.72.03-1.8-1.29-4-1.41-4.35-.43-.98.16-1.6.9-2.14.7-.51,1.31-.27,1.68.39.87,1.55,1.79,3.08,2.35,4.78.38,1.05.83,1.6,2.04,1.31.89-.21,1.63.09,2.45,1.05Zm12.16-5c-.06,1.67-.3,3.31-.58,4.91-.05.32-.49.76-.74.73-.36-.04-.71-.45-.87-.56-.23-.72-.3-1.2-.52-1.61-.82-1.63-.29-3,.34-4.3.2-.4,1-.71,1.46-.58.37.1.9.95.9,1.41Z" style="fill:#ff5353; stroke-width:0px;"/><path d="m655.61,518c-.27,1.33-.26,2.74.66,4.13.18.28.29.63.37.98-.25.28-.51.55-.77.82-.27-.48-.52-.97-.78-1.46,0-.05.05-1.66-1.53-1.79-2.7-.21-.1-2.55,1.55-4.43.82-.93,1.32-.81,2.12.4-.57.44-1.51.74-1.62,1.34Z" style="fill:#ff5353; stroke-width:0px;"/><path d="m655.24,510.37c-.09.47-.3.87-.18,1.14.21.47.59,1.13.95,1.23.8.23,1.63.32,2.4.21.33-.05.67-.71.69-1.16.02-.33-.51-1.05-.81-1.12-.97-.22-1.94-.22-3.06-.3Z" style="fill:#ff5353; stroke-width:0px;"/><path d="m643.9,508.95l1.66-2.88-.33-.49c-.77.15-2,.05-2.18.52-.27.71.18,1.81.31,2.74l.53.11Z" style="fill:#ff5353; stroke-width:0px;"/><path d="m654.53,497.4c-.07-.04-.32-.27-.42-.22-.22.11-.55.34-.53.57.09,1.21.23,2.42.42,3.62.03.22.42.63.6.65.23.02.61-.27.59-.45-.15-1.32-.4-2.66-.66-4.17Z" style="fill:#ff5353; stroke-width:0px;"/><polygon points="652.94 507.76 652.25 509.42 653.68 509.93 653.68 508.06 652.94 507.76" style="fill:#ff5353; stroke-width:0px;"/><path d="m651.12,496.3c-.62-.17-1.05-.27-1.47-.37.05.36-.01.9.15,1.05.29.27.75.35,1.12.37.09,0,.11-.53.2-1.06Z" style="fill:#ff5353; stroke-width:0px;"/><path d="m649.22,501.81c-.02.68-.03,1.12-.04,1.55.29.03.73.21.84.07.2-.27.26-.71.26-1.11,0-.08-.52-.26-1.05-.52Z" style="fill:#ff5353; stroke-width:0px;"/><path d="m634.14,504.43c-.2-.3-.41-.58-.67-.81-.33-.29-.93-.25-1.24-.54-.39-.37-.95-1.14-.83-1.37.3-.59.92-.99,1.47-1.38.06-.04,1.22,1.56,2.09,2.17.14.1.77-.22.75-.32-.17-1.09-.88-2.41-1.4-3.5l.36-.24c1.32.28,2.44.75,3.4,2.19.17.26.4.49.65.71l-4.59,3.1Z" style="fill:#ff5353; stroke-width:0px;"/><path d="m581.84,482.36c.17.22.42.37.76.43.71.09,1.63-.08,2.21-.51.45-.34-.61-1.91-1.46-2.17-.37-.12-.69-.12-.96,0l.98-4.05c.48.63,1.2,1.23,1.81,1.81.03.03.63-.37.8-.66.21-.36.25-.82.36-1.24l-.26-.24c.6-.65,1.15-1.36,1.85-1.91,2.69-2.07.35-5.21-1.12-3.31-.8,1.08.07,3.38-2.32,3.53-.23,0-.46.07-.67.15l1.69-7.01c.16-.02.33-.08.5-.19.66-.37,1.18-.95,1.83-1.48-.26-1-.41-1.82-.73-2.6-.06-.15-.27-.31-.48-.42l.38-1.59c.16.52.45,1.06.86,1.36,1.02.71,1.46,1.38,1.33,2.46-.12,1.03.33,1.84,1.59,2.22,1.62.46,2.1,1.24,2.13,2.13.03.89-.38,1.92-.58,3.06-.15.86.2,1.34,1.19,1.19,1.67-.23,2.75.37,3.25,1.98.28.88,1.01,1.44,1.95.92,1.19-.67,2.38-1.84,1.45-3.51-.63-1.11-1.4-1.82-2.8-1.79-2.06.11-1.73-.52-1.47-3.8,1.09.98,2.39,2.35,3.51,1.67.73-.47.83-1.31.24-2.19-.35-.52-.9-.97-1.02-1.49-.14-.61-.1-1.34.21-1.84.18-.29,1.28-.47,1.58-.26.48.31.85,1.08.87,1.6.08,1.65,1.08,1.97,2.21,2.4,1.13.44,2.41.94,2.81,3.1.61,3.6,3.23,1.39,5.46,2.26,2.57,1.09,5.38,2.4,7.46,3.63,1.21.66,2.35.47,3.33-.08.2-.11.12-1,.03-1.04-1.27-.54-1.35-1.31-1.07-2.27.07-.24-.02-.66-.2-.89-.57-.72-.76-1.34-.76-1.92-.03-.59.22-1.11.65-1.62.31-.37.42-.89.61-1.35.68.68.96,1.23,1.24,1.76.27.52.46,1,.59,1.44.26.88.29,1.6.29,2.26,0,1.31-.13,2.33,1.11,3.64.16.16.3.4.32.6.19,2.01-1.68,2.9-3.63,1.93-5.2-2.59-4.41-1.89-5.71-1.74.67,1.93.33,1.18,1.52,2.89-1.09-.03-1.96.21-2.58-.12-.94-.49-.52-1.39-.35-2.14.28-1.1-.3-1.91-1.67-2.28-1.06-.28-2.27-.73-3.1-.5-.43.12-.26,1.47-.37,2.25-.11.77-.67.91-1.16.31-1.41-1.56-3.42-.85-4.97-1.68-.15-.08-.64.28-.8.55-.55.89-1.13,1.62-2.28,1.99-.33.1-.75.82-.64,1.05.17.37.74.59,1.15.86.58.36,1.77-.56,3.73.84.98.66,1.73.65,2.61-.14,1.95-1.76,2.05-1.69,4.21.62.21.39.53.88.43,1.21-.07.24-.68.34-1.08.36-1.28.09-2,1.08-1.35,1.85.56.82,1.3,1.3,2.38,1.06,1.14-.26,2.34-.45,3.55-.46,1.45,0,1.92.57,1.93,1.88-.9.2-1.77.32-2.55.62-1.61.62-3.15,1.38-4.7,2.07-.28.12-.65.04-.97.06l.29-.29c-.64-1.38-1.11-2.99-2.03-4.16-.89-1.23-2.42-.93-3.15.38-.33.57-.98.99-1.54,1.37-.33.23-.78.16-1.16.39-.79.46-1.24,1.15-.9,2,.25.83.75,1.02,1.61.61.84-.4,1.32-.19,2-.02.68.12,1.55.38,3.26.06.79-.15,1.18,0,1.16,1.01-.02.63.36,1.61.84,1.83,1.7.76,2.18,2.31,2.8,3.82.46,1.02,1.1,1.95,1.74,2.85.39.55,1.16.61,1.48.03.7-1.31,1.76-1.88,3.16-2.16,1.1-.21,2.21-3.63,3.64-4.24,1.18-.48,2.01-1.12,1.67-2.35.81-.68,1.49-1.24,2.19-1.84.58.49,1.08,1,1.47,1.58.36.61.6,1.3.73,2.1.53,3.53,1.11,5.53,1.43,6.86.28,1.36.27,2.06-.36,2.78-1.29,1.44-2.53,2.68-.96,4.01.62.52,1.47,1.03,2.15.3.4-.44.83-.66,1.3-.75l-5.04,3.41c.25-.9-.68-1.84-1.38-1.69-.16.04-.36.42-.36.65.01.68.09,1.36.16,2.11l-.26.18c-.76-.08-1.49-.09-2.17-.24-.44-.1-1.12-.39-1.15-.68-.06-.51.25-1.11.46-1.65.18-.47,1.96-1.61.18-2.77-.34-.19-.7-.38-1.07-.47-1.01-.25-1.02-.82-.72-1.66.25-.71.43-1.48.46-2.24.03-.69-.57-.94-1.05-.57-1.37,1.02-3.03,1.77-3.25,3.88-.13,1.25-.14,2.33.68,3.25-.78.76-.7,1.32.19,1.74.93.49,1.85,1.01,2.77,1.57.37.23.64.6,1,.85.33.23.67.56,1.02.79l-17.05,11.52c-3.91-5.74-8.33-10.78-13.48-14.7l-.46-.4c-.15-.14-.32-.29-.39-.3-.18-.1-.35-.2-.52-.31-.17-.11-.33-.23-.5-.35-.14-.13-.31-.26-.61-.38-.51-.25-1.01-.52-1.51-.8-.22-.15-.53-.28-.86-.41l-.96-.4c-2.46-1.14-5.76-2.08-9.1-2.96l4.96-20.56Zm42.13,18.19c.67.31,1.32.76,2.03.9,1.77.35,2.46-1.55,1.34-2.82-.53-.59-1.11-.24-1.57.2-.2.19-.43.35-.74.44l-1.06,1.28Zm-.4-3.74c.79-.07,1.42.06,1.58-.17.23-.33.12-.92.16-1.4-.46-.04-1.04-.27-1.33-.07-.27.19-.22.84-.4,1.64Zm-19.39-2.37c-.23.44-.06,1.09-.08,2.03.87-.21,1.52-.16,1.84-.46.62-.58.59-1.3-.07-1.87-.64-.55-1.31-.43-1.69.3Zm-9.6-17.26c-.46-.12-1.06.28-1.59.44-.13,1.06-.12,1.69.77,2.01.79.27,1.27-.04,1.48-.68.23-.67.2-1.56-.67-1.77Zm9.71-3.59c.45.2.84.55,1.5,1.01.2,0,.76.12,1.08-.06.22-.13.28-.75.11-1.04-.86-1.44-1.8-3.07-2.94-4.32-.32-.37-1.33-.71-1.68-.56-.45.19-.87.94-.75,1.39.39,1.46.9,2.78,2.67,3.59Zm-17.63,7.19c-.19.89-.2,1.74.77,2.16.33.14,2.67,1.09,3.84,2.31,2.49,2.82,2.18-1.83,5.75-1.55.53.04,1.63-.55,1.65-.85.03-.68-.47-1.37-.78-2.07-1.23-.21-1.98.04-2.5.77-.73,1.01-1.37.84-2.35.35-1.56-.76-3.2-1.41-4.87-1.99-.72-.22-1.34.02-1.51.87Z" style="fill:#ff5353; stroke-width:0px;"/><path d="m617.77,487.58c.67,3.2,1.93,3.86,4.98,2.81-.24-4.5-.67-5.14.75-6.98.72-.94.33-1.96-.94-2.6-2.76-1.45-3-2.8-4.62-1.44.77.81,1.47,1.65,2.29,2.37,1,.88,2.23,1.74,1.77,3.1-.49,1.52-1.5,2.64-3.29,2.61-.3,0-.63.08-.94.12Z" style="fill:#ff5353; stroke-width:0px;"/><path d="m638.86,491.59c.25.12.38.6.58.92.52.92.88,1.99,1.55,2.74.83.93,2.08,1.74,2.96,2.56l-2.61,1.76c-.31-.38-.62-.77-.96-1.19,1.08-.68.64-1.47-.43-2.25-.81-.55-.05-1.95-2.09-3.63-.23-.18-.2-.72-.29-1.1.43.05.9,0,1.29.2Z" style="fill:#ff5353; stroke-width:0px;"/><path d="m611.53,463.58c-1.58-.57-2.09-.38-2.08.91.03,2.59-.51,6.07,1.91,4.67,1.43-.86,2.54.72,2.59.76.81.44,1.62.9,2.45,1.28.12.05.36-.32.55-.5-.73-.59-1.42-1.38-2.23-1.74-1.83-.89-2.81-1.96-3.57-3.28-.35-.58.23-1.39.38-2.1Z" style="fill:#ff5353; stroke-width:0px;"/><path d="m621.83,466.76c-.27-2.06-2.1-3.88-4.46-4.12-1.83-.15-3.43.38-5.42.7,1.73,1.16,2.98,1.56,4.15,1.24,1.71-.51,3.36.04,5.01,1.72.19.19.51.31.76.47h-.05Z" style="fill:#ff5353; stroke-width:0px;"/><path d="m635.93,478.33c-.33,1.72.3,2.8,1.63,3.53,1.28.81,2.52,1.76,3.8,2.62.31.21.7.23,1.06.33-.11-.88.11-1.36-1.03-2.1-.95-.61-2-1.04-2.85-1.76-.9-.67-1.63-1.62-2.62-2.63Z" style="fill:#ff5353; stroke-width:0px;"/><path d="m621.68,459.25c.64.71,1.15,1.55,1.9,2.09.81.58,1.7,1.18,2.49,1.71.66.49,1.33.96,2.02,1.39.44.28,1.12.04,1.69.05-.55-.87-.47-1.05-.96-1.5-.55-.45-1.26-1.07-5.14-3.26-.54-.3-1.1-.54-1.64-.81l-.35.32Z" style="fill:#ff5353; stroke-width:0px;"/><path d="m605.24,459.62c.28.44.4.89.68,1.03.51.25,1.29.54,1.65.4.82-.31,1.58-.79,2.13-1.35.24-.24.03-.97-.3-1.34-.24-.27-1.19-.53-1.48-.4-.95.42-1.73,1.03-2.69,1.66Z" style="fill:#ff5353; stroke-width:0px;"/><path d="m595.39,465.91l-.72-3.32-.58-.16c-.47.61-1.46,1.39-1.27,1.85.28.68,1.37,1.27,2.11,1.89l.47-.26Z" style="fill:#ff5353; stroke-width:0px;"/><path d="m634.43,490.93c-1.01-1.06-2.4-1.45-2.78-.72-.21.4-.1,1.24.18,1.69.48.76,1.21.48,2.6-.97Z" style="fill:#ff5353; stroke-width:0px;"/><path d="m595.43,450.14c-.07.02-.42.02-.46.12-.09.24-.17.62,0,.77.91.84,1.84,1.57,2.84,2.42.18.15.77.23.91.12.19-.13.28-.6.13-.74-1.06-.96-2.18-1.8-3.41-2.7Z" style="fill:#ff5353; stroke-width:0px;"/><path d="m629.83,485.46l-2.18,1.52.06.43c.78.13,1.83.61,2.28.31.44-.28.25-1.38.32-2.13l-.48-.14Z" style="fill:#ff5353; stroke-width:0px;"/><path d="m647.28,493.89c-.85-1.1-2.54-1.54-3.2-.83-.13.14-.03.84.15.98.77.6,2.29.5,3.06-.15Z" style="fill:#ff5353; stroke-width:0px;"/><path d="m631.33,471.65c-.4-.86-.58-1.6-1.06-2.12-.27-.29-1.1-.33-1.54-.23-.3.07-.53.56-.5.91.02.23.55.64.9.8.54.24,1.11.33,2.21.64Z" style="fill:#ff5353; stroke-width:0px;"/><path d="m634,496.96c-.56-.71-1.12-1.44-1.75-2.09-.13-.13-.68-.04-.83.13-.15.17-.15.73,0,.86.64.58,1.39,1.06,2.07,1.6l.52-.51Z" style="fill:#ff5353; stroke-width:0px;"/><path d="m633.49,486.74c1.68-.18,1.41.43,1.34-1.91-.69-.13-1-.28-1.12-.11-.12.17-.07.69-.22,2.02Z" style="fill:#ff5353; stroke-width:0px;"/><polygon points="601.52 459.02 602.17 460.74 603.67 460.24 602.3 458.75 601.52 459.02" style="fill:#ff5353; stroke-width:0px;"/><path d="m630.22,484.47c.31-2.51.36-1.85-.33-2.53-.53.56-.5-.12-.17,2.43l.5.1Z" style="fill:#ff5353; stroke-width:0px;"/><path d="m592.11,451.66c-.58.3-.96.5-1.34.7.28.25.59.7.82.7.4,0,.8-.25,1.1-.49.07-.06-.28-.46-.58-.91Z" style="fill:#ff5353; stroke-width:0px;"/><path d="m594.48,456.97c.45.52.74.84,1.03,1.17.24-.16.7-.31.68-.49-.03-.34-.3-.73-.57-1.02-.06-.06-.57.16-1.14.34Z" style="fill:#ff5353; stroke-width:0px;"/><path d="m585.05,469.05c-.35-.08-.69-.15-1.03-.14-.44.01-.85.45-1.28.44-.54,0-1.47-.19-1.54-.44-.17-.63.02-1.35.16-2.01.02-.07,1.94.32,2.99.18.17-.02.42-.68.34-.74-.85-.69-2.26-1.17-3.37-1.62l.11-.42c1.16-.68,2.3-1.11,3.96-.69.3.08.62.09.95.08l-1.3,5.38Z" style="fill:#ff5353; stroke-width:0px;"/><path d="m538.08,501.32l.37-.07c.3-.08.69-.13,1.1-.18l1.2-.16,1.2-.17,1.32-.11c3.45-.39,7.35-.41,11.15-.41,7.71.18,15.56,1.1,22.47,2.72l4.82-20c-.42.06-.89.05-1.3.1-.44.06-.89-.03-1.32.05-1.07.21-2.1.44-3.15.73-.97.27-1.42-.11-1.34-1.2-1.26-.17-1.99-.99-2.74-2.03-1.27-1.73-.49-3.36-.13-5.05.13-.61.74-.82,1.18-.27.48.6.86,1.3,1.15,2,.34.83.74,1.26,1.67.79.34-.17.74-.27,1.12-.34,2.12-.36,1.56,1.69,1.75,2.15.21.54.38,1.19.78,1.53.22.19.92-.05,1.32-.28.61-.35,1.16-.83,1.78-1.29l.07-.31c-.55-.5-1.08-.95-1.55-1.44-.15-.16-.27-.58-.17-.72.42-.59,1.74-.52,2.17.31l1.43-5.92c-.28.39-.45.84-.45,1.43,0,1-.98,1.2-1.79,1.23-2.06.09-1.97-1.66-1.98-3.59-.04-1.96-1.81-1.94-7.11-6.49-1.21-.98-2.5-1.31-3.97-1.33-.15.91-.3,1.77-.48,2.81,1.03.74.82,1.77.24,2.89-.69,1.37.68,4.76-.01,5.61-.88,1.1-1.33,2.21-1,3.68.14.65-.5,1.09-1.17.89-1.09-.34-2.22-.57-3.25-1.05-1.5-.66-2.86-1.72-4.71-1.26-.53.12-1.45-.42-1.83-.93-.61-.82-1.02-.69-1.57-.09-2.36,2.67-3.55,1.5-4.64,3.09-.55.83-1.19.94-1.94.44-.82-.56-.79-1.38-.34-2.18.21-.37.67-.61.83-.99.28-.64.62-1.34.57-2-.11-1.49,1-2.6,2.46-2.08,1.47.52,2.82,1.31,4.19,2.06l-.05.41c.25-.21.6-.38.75-.65.81-1.5,1.55-3.04,2.42-4.52.42-.71,1.03-1.36,1.59-2.05-.81-1.05-1.52-1.2-2.64-.3-.93.75-1.75,1.64-2.5,2.55-.71.85-1.59.93-2.53.68-.98-.27-.96-1.49-.03-2.29.3-.26.72-.74.63-.97-.12-.31-.66-.47-1.16-.71-.73-.18-1.26-.3-1.68-.35-1.68,4.78-3.42,9.53-5.12,14.27-2.57,7.16-5.31,14.25-8.06,21.35Zm36.93-29.98c.04-.27.11-.54.13-.82.05-.64.25-1.29,1.03-1.19,1.67.22,2.42,2.11.87,3.02-.62.36-1.4.45-2.11.66,0,0-.05-1.67.08-1.67Zm-3.62-2.34c.09-.35.67-.58,1.05-.86.29.37.76.73.8,1.13.03.28-.52.59-1.08,1.19-.39-.7-.85-1.14-.77-1.46Zm-14.84,10.64c.9.04,1.39.59,1.26,1.43-.07.44-.63.8-1.23,1.5-.59-.76-1.14-1.16-1.24-1.65-.15-.81.32-1.32,1.21-1.28Z" style="fill:#ff5353; stroke-width:0px;"/><path d="m559.4,457.45c-5.42,1.16-4.43,1.23-5.34,2.18,1.64,1.04.93.71,2.85,1.31-.85.65-1.37,1.37-2.05,1.5-1.01.22-1.24-.71-1.5-1.43-.08-.22-.19-.39-.3-.54.34-1,.68-2,1.01-3,.67-.13,1.35-.26,2.02-.38,1.3-.23,2.04-1.08,2.45-2.12.08-.21-.49-.86-.58-.84-1.25.35-1.76-.2-2.09-1.13-.04-.11-.14-.23-.25-.34.27-.88.54-1.76.8-2.63,1.61,1.46,1.63,3.06,3.97,3.4.21.03.46.13.58.27,1.31,1.46.47,3.32-1.56,3.76Z" style="fill:#ff5353; stroke-width:0px;"/><path d="m561.87,467.19c2.5,2.06,3.92,1.66,5.55-1.09-3.01-3.26-3.7-3.44-3.76-5.77-.03-1.18-.94-1.67-2.26-1.47-2.93.56-3.91-.35-4.34,1.72,1.06.16,2.1.39,3.14.45,1.28.05,2.72.09,3.2,1.36.56,1.46.5,2.97-.89,4.12-.24.2-.43.45-.65.67Z" style="fill:#ff5353; stroke-width:0px;"/><path d="m580.02,456.42c.26-.07.66.2,1,.3.98.3,1.95.86,2.94.94,1.22.12,2.68-.13,3.86-.13l-.74,3.06c-.48-.07-.97-.15-1.5-.23.34-1.23-.5-1.51-1.81-1.36-.95.14-1.36-1.39-3.9-1.25-.28.01-.61-.41-.91-.63.35-.25.65-.59,1.06-.71Z" style="fill:#ff5353; stroke-width:0px;"/><path d="m569.69,448.38c.79,1.54,1.89,1.98,3.28,1.7,1.42-.29,2.9-.47,4.37-.64.35-.05.65-.3.97-.45-.63-.59-.77-1.09-2.05-.89-1.06.18-2.07.61-3.13.66-1.04.06-2.13-.22-3.44-.37Z" style="fill:#ff5353; stroke-width:0px;"/><path d="m576.39,458.86c-1.41-.14-2.68.5-2.5,1.3.1.42.72.99,1.21,1.14.84.25,1.19-.44,1.29-2.44Z" style="fill:#ff5353; stroke-width:0px;"/><path d="m569.59,457.78l-.66,2.56.31.3c.65-.39,1.72-.68,1.86-1.2.14-.5-.67-1.23-1.08-1.86l-.43.2Z" style="fill:#ff5353; stroke-width:0px;"/><path d="m587.68,452.41c-1.35-.23-2.87.59-2.89,1.56,0,.2.54.64.75.62.96-.09,2-1.18,2.14-2.18Z" style="fill:#ff5353; stroke-width:0px;"/><path d="m562.48,446.24c-.78-.46-1.33-.91-1.97-1.02-.36-.06-.98.42-1.24.78-.18.24-.07.77.15,1.02.15.17.77.16,1.1.07.53-.14.99-.45,1.95-.85Z" style="fill:#ff5353; stroke-width:0px;"/><path d="m579.97,463.67c-.88-.15-1.75-.33-2.64-.4-.18-.01-.53.42-.53.65,0,.22.36.65.55.65.85,0,1.7-.11,2.56-.18l.05-.72Z" style="fill:#ff5353; stroke-width:0px;"/><path d="m573.04,456.39c1.12-1.28,1.29-.66-.21-2.3-1.17.78-1.25.2.21,2.3Z" style="fill:#ff5353; stroke-width:0px;"/><path d="m569.27,456.77c-1.3-2.14-.86-1.68-1.78-1.74-.04.78-.44.21,1.36,1.97l.42-.24Z" style="fill:#ff5353; stroke-width:0px;"/><polygon points="662.53 461.61 638.84 469.65 670.14 384.95 603.27 451.6 599.77 434.4 568.77 498.52 599.28 525.25 662.53 461.61" style="fill:#ff5353; stroke-width:0px;"/><polygon points="619.46 421.43 606.9 427.77 624.58 391.74 619.46 421.43" style="fill:#ff5353; stroke-width:0px;"/><polygon points="574.93 614.08 612.45 610.64 631.6 574.84 620.38 568.46 625.04 540.59 603.47 516.89 595.99 496.42 565.79 486.75 554.54 493.55 529.8 488.78 513.72 500.74 489.86 517.86 478.19 535.86 482.43 584.29 550.27 630.72 574.93 614.08" style="fill:#ffd747; stroke-width:0px;"/><rect x="604.02" y="296.89" width="57.61" height="4.57" transform="translate(54.52 693.56) rotate(-59.6)" style="fill:#ffd747; stroke-width:0px;"/><rect x="749.7" y="366.52" width="47.56" height="4.57" transform="translate(-44.76 623.3) rotate(-42.77)" style="fill:#ffd747; stroke-width:0px;"/><rect x="745.14" y="448.66" width="35.27" height="4.57" transform="translate(-114.12 578.37) rotate(-38.86)" style="fill:#ffd747; stroke-width:0px;"/><rect x="692.05" y="277.37" width="31.37" height="4.57" transform="translate(46.58 656.45) rotate(-51.24)" style="fill:#ffd747; stroke-width:0px;"/><rect x="646.38" y="561.49" width="14.26" height="4.57" style="fill:#fff; stroke-width:0px;"/><rect x="502.26" y="459.91" width="4.57" height="14.77" transform="translate(-33.44 38.92) rotate(-4.28)" style="fill:#ffd747; stroke-width:0px;"/><rect x="687.38" y="527.18" width="4.57" height="16.3" transform="translate(-170.41 385.36) rotate(-27.93)" style="fill:#ffd747; stroke-width:0px;"/><rect x="533.99" y="438.37" width="4.57" height="15.99" transform="translate(-159.74 397.46) rotate(-35.75)" style="fill:#fff; stroke-width:0px;"/><polygon points="703.48 380.76 674.4 405.77 685.66 409.46 703.48 380.76" style="fill:#ff5353; stroke-width:0px;"/><polygon points="681.79 436.23 666.33 436.23 666.33 443 681.79 436.23" style="fill:#ff5353; stroke-width:0px;"/><polygon points="609.85 581.13 602.27 595.29 569.31 598.32 550.33 611.11 497.92 575.24 494.83 540 501.8 529.25 523.23 513.87 533.75 506.05 557.59 510.66 567.87 504.44 583.48 509.44 589.34 525.45 607.75 545.68 602.52 576.96 609.85 581.13" style="fill:#138bfb; stroke-width:0px;"/><polygon points="504.58 560.74 511.19 565.26 524.17 564.77 530.48 578.47 551.74 593.02 569.63 581.97 600.92 595.49 568.38 598.48 549.64 611.11 497.88 575.69 494.83 540.9 504.58 560.74" style="fill:#031221; stroke-width:0px;"/><rect x="566.37" y="561.49" width="14.26" height="4.57" style="fill:#031221; stroke-width:0px;"/><rect x="545.04" y="523.79" width="4.57" height="14.77" transform="translate(-38.12 42.33) rotate(-4.28)" style="fill:#fff; stroke-width:0px;"/><rect x="571.22" y="528.75" width="4.57" height="14.98" transform="translate(-112.6 917.99) rotate(-72.17)" style="fill:#fff; stroke-width:0px;"/><rect x="528.5" y="543.84" width="4.57" height="15.99" transform="translate(-232.9 496.75) rotate(-41.99)" style="fill:#031221; stroke-width:0px;"/><path d="m162.15,198.75v-41.93h12.37v15.6h25.17v-15.6h12.37v41.93h-12.37v-16.33h-25.17v16.33h-12.37Z" style="fill:#fff; stroke-width:0px;"/><path d="m228.51,198.75v-41.93h12.37v41.93h-12.37Z" style="fill:#fff; stroke-width:0px;"/><path d="m280.98,199.48c-8.49,0-14.86-1.79-19.11-5.36-4.25-3.57-6.37-9.02-6.37-16.33,0-4.75,1.11-8.75,3.32-11.97,2.21-3.23,5.41-5.66,9.6-7.28,4.18-1.62,9.2-2.44,15.05-2.44,3.62,0,6.98.33,10.09,1,3.11.67,5.83,1.66,8.17,2.96,2.34,1.3,4.14,2.94,5.42,4.91,1.28,1.97,1.92,4.28,1.92,6.92h-12.07c0-1.14-.36-2.12-1.07-2.96-.71-.83-1.68-1.51-2.89-2.04-1.22-.53-2.6-.92-4.14-1.19-1.54-.26-3.17-.4-4.88-.4-2.44,0-4.63.24-6.58.73-1.95.49-3.62,1.23-5,2.22-1.38,1-2.43,2.22-3.14,3.69-.71,1.46-1.07,3.17-1.07,5.12v1.46c0,2.76.57,5.01,1.71,6.73,1.14,1.73,2.8,3,5,3.81,2.19.81,4.88,1.22,8.04,1.22,2.88,0,5.37-.25,7.47-.76,2.09-.51,3.7-1.27,4.81-2.29,1.12-1.02,1.68-2.19,1.68-3.54v-.37h-14.63v-7.98h26.81v23.4h-7.25l-1.16-5c-1.58,1.3-3.38,2.38-5.39,3.23-2.01.85-4.22,1.48-6.61,1.89-2.4.41-4.98.61-7.74.61Z" style="fill:#fff; stroke-width:0px;"/><path d="m325.1,198.75v-41.93h12.37v15.6h25.17v-15.6h12.37v41.93h-12.37v-16.33h-25.17v16.33h-12.37Z" style="fill:#fff; stroke-width:0px;"/><path d="m416.09,198.75v-41.93h12.37v41.93h-12.37Z" style="fill:#fff; stroke-width:0px;"/><path d="m444.91,198.75v-41.93h19.38l7.19,18.22c.32.73.68,1.67,1.07,2.8.38,1.14.77,2.31,1.16,3.5s.74,2.27,1.07,3.2h.43c.24-.85.56-1.85.95-2.99.38-1.14.79-2.29,1.22-3.44.43-1.16.8-2.18,1.13-3.08l7.19-18.22h18.83v41.93h-12.37v-21.63c0-.85,0-1.81.03-2.86.02-1.06.05-2.09.09-3.11.04-1.01.06-1.89.06-2.62h-.49c-.24.77-.55,1.69-.91,2.74-.37,1.06-.72,2.1-1.07,3.14-.35,1.04-.68,1.94-1.01,2.71l-8.78,21.63h-11.33l-8.84-21.63c-.41-1.06-.8-2.13-1.19-3.23-.39-1.1-.73-2.12-1.04-3.08-.3-.95-.56-1.72-.76-2.29h-.49c.04.57.07,1.32.09,2.25.02.93.04,1.95.06,3.05.02,1.1.03,2.19.03,3.29v21.63h-11.7Z" style="fill:#fff; stroke-width:0px;"/><path d="m520.96,198.75v-41.93h32.3c2.76,0,5.17.61,7.22,1.83s3.66,2.89,4.81,5.03,1.74,4.6,1.74,7.4-.59,5.29-1.77,7.46c-1.18,2.17-2.8,3.86-4.88,5.06s-4.49,1.8-7.25,1.8h-19.81v13.35h-12.37Zm12.37-22.55h16.39c1.83,0,3.22-.44,4.17-1.31.95-.87,1.43-2.12,1.43-3.75,0-1.1-.22-2.02-.67-2.77-.45-.75-1.08-1.33-1.89-1.74-.81-.41-1.83-.61-3.05-.61h-16.39v10.18Z" style="fill:#fff; stroke-width:0px;"/><path d="m571,198.75l20.6-41.93h13.83l20.6,41.93h-13.47l-3.17-6.7h-22.43l-3.17,6.7h-12.8Zm20.11-15.78h14.14l-3.78-8.53c-.16-.37-.39-.9-.67-1.62-.28-.71-.59-1.46-.91-2.25-.33-.79-.61-1.52-.85-2.19s-.45-1.17-.61-1.49h-.43c-.29.73-.63,1.58-1.04,2.56-.41.98-.78,1.91-1.13,2.8-.35.89-.66,1.62-.94,2.19l-3.78,8.53Z" style="fill:#fff; stroke-width:0px;"/><path d="m660.27,199.48c-5.85,0-10.72-.82-14.62-2.47-3.9-1.65-6.83-4.07-8.78-7.28-1.95-3.21-2.93-7.19-2.93-11.94,0-6.95,2.24-12.3,6.73-16.06,4.49-3.76,11.04-5.64,19.65-5.64,4.79,0,9.02.72,12.68,2.16,3.66,1.44,6.51,3.47,8.56,6.09,2.05,2.62,3.08,5.72,3.08,9.29h-12.07c0-1.75-.52-3.24-1.55-4.48-1.04-1.24-2.49-2.19-4.36-2.86-1.87-.67-4.04-1-6.52-1-2.93,0-5.38.5-7.38,1.49s-3.5,2.37-4.54,4.11c-1.04,1.75-1.55,3.78-1.55,6.09v1.52c0,2.32.52,4.36,1.55,6.12,1.04,1.77,2.54,3.15,4.51,4.14,1.97,1,4.38,1.49,7.22,1.49,2.68,0,4.99-.31,6.92-.94,1.93-.63,3.41-1.55,4.45-2.77,1.04-1.22,1.55-2.68,1.55-4.39h11.82c0,3.45-1,6.48-2.99,9.08-1.99,2.6-4.8,4.62-8.44,6.06-3.64,1.44-7.97,2.16-13.01,2.16Z" style="fill:#fff; stroke-width:0px;"/><path d="m711.89,198.75v-31.93h-18.16v-9.99h48.75v9.99h-18.16v31.93h-12.43Z" style="fill:#fff; stroke-width:0px;"/></g></svg>