<?xml version="1.0" encoding="UTF-8"?><svg id="uuid-72af006b-4e82-4513-b577-6acd3bbc4cd1" xmlns="http://www.w3.org/2000/svg" viewBox="0 0 625.54 291.91"><g id="uuid-0564f43c-1620-4ffd-8588-412ed11d3299"><path d="m312.98,79.65c9.63,5.11,19.27,10.22,28.89,15.34,15.16,8.08,30.31,16.17,45.97,24.53-8.45,4.88-16.89,9.15-25.6,13.69-9.08-4.79-18.25-9.63-27.53-14.53-7.96,4.19-15.84,8.34-24.36,12.82,9.16,4.91,17.92,9.61,27.35,14.66-8.95,4.76-17.23,9.16-25.71,13.66-24.95-13.26-50.01-26.58-75.61-40.19,9-4.77,17.39-9.21,25.8-13.66,8.82,4.69,17.6,9.29,26.31,14.02,1.76.96,3.24,1.34,5.09.34,7.27-3.93,14.58-7.77,22.14-11.79-9.71-5.15-19.11-10.13-28.91-15.33,8.18-4.49,16.19-8.88,24.2-13.27.29.04.55-.02.8-.19.4-.04.79-.07,1.19-.11Z" style="stroke-width:0px;"/><path d="m476.87,257.76h-20.49c-1.33-3.3-4.38-4.67-7.69-5.28-6.07-1.12-12.22-1.52-18.23.36-5.51,1.72-8.4,5.29-8.67,10.24-.35,6.51,1.69,10.55,7.19,12.9,8.04,3.42,16.19,2.75,24.17-.38,1.43-.56,2.58-1.85,4.42-3.22-3.72-1.01-6.69-.51-9.61-.6-2.82-.09-5.64-.02-8.83-.02-.46-3.22-.07-6.3-.25-9.32,4.07-.86,33.24-.95,37.95-.15.07.43.21.9.21,1.37.01,8.83,0,17.66,0,26.73-3.95.88-7.87.23-11.93.48-.82-2.35-1.57-4.49-2.47-7.08-3.7,2.88-7.41,5.11-11.72,6.21-7.16,1.83-14.34,2.2-21.68,1.27-5.8-.74-11.39-1.9-16.45-4.97-6.88-4.17-10.61-10.24-11.19-18.26-.07-1-.05-2-.11-3-.74-14.52,8.11-22.27,19.98-25.13,9.41-2.27,18.97-2.56,28.63-1.35,4.96.62,9.82,1.31,14.45,3.24,5.78,2.4,10.21,6.12,11.89,12.43.28,1.05.26,2.19.41,3.52Z" style="stroke-width:0px;"/><path d="m605.86,268.17v-28.9h19.68v51.33h-19.52c-10.31-9.91-21.08-20.26-32.28-31.01v31.01h-19.18c-.93-3.6-1.24-33.06-.49-51.57,3.53-.16,7.14-.05,10.73-.07,3.66-.02,7.32,0,11.36,0,9.6,9.45,19.38,19.07,29.68,29.21Z" style="stroke-width:0px;"/><path d="m158.1,290.39v-51.33c.79-.04,1.42-.1,2.04-.1,12.65,0,25.3-.18,37.94.07,6.76.13,13.47,1.1,19.82,3.78,6.6,2.79,11.63,7.12,13.3,14.29,1.37,5.87,1.41,11.89-.78,17.63-2.68,7.04-8.37,10.77-15.17,13.2-5.37,1.92-10.99,2.6-16.55,2.74-13.14.33-26.29.13-39.44.13-.3,0-.59-.2-1.16-.41Zm19.94-37.62v24.08c6.55,0,12.85.18,19.14-.09,2.57-.11,5.15-1.03,7.63-1.87,4-1.35,7.14-4.68,6.84-10.91-.23-4.76-3.41-8.68-8.3-9.97-2.54-.67-5.2-1.11-7.82-1.19-5.66-.18-11.32-.05-17.49-.05Z" style="stroke-width:0px;"/><path d="m355.34,237.97c7.83-.21,15.39.64,22.67,3.07,4.58,1.53,8.71,3.95,11.82,7.86,4.91,6.18,5.58,13.32,4.61,20.74-1.33,10.2-7.78,15.97-17.06,19.26-5.05,1.79-10.32,2.33-15.56,2.73-8.62.65-17.29.23-25.69-1.92-7.77-1.99-14.57-5.8-17.88-13.65-3.31-7.83-3.25-15.84.44-23.53,2.97-6.17,8.38-9.64,14.76-11.7,7.18-2.31,14.56-3.04,21.9-2.87Zm.17,13.64c-6.04.08-10.23,1.49-12.6,2.61-2.99,1.41-5.37,3.65-5.97,6.9-1.16,6.34.3,12.2,8.05,14.95,6.81,2.42,13.63,2.32,20.4.28,5.84-1.76,9.26-6.43,9.12-11.63-.15-5.56-3.83-10.17-9.75-11.67-3.02-.77-6.18-.98-9.27-1.44Z" style="stroke-width:0px;"/><path d="m240.78,238.95c9.36,0,18.34,0,27.32,0,6.83,0,13.67-.18,20.5.08,3.6.14,7.22.82,10.74,1.66,5.28,1.25,8.85,4.36,9.54,10.1.73,6.1-1.88,10.24-7.33,12.77-.55.25-1.07.55-1.84.96,1.47.82,2.78,1.5,4.03,2.27,3.34,2.05,5.23,4.95,5.28,8.98.06,4.8.24,9.6.38,14.77-2.73.79-6.03.17-9.27.28-3.3.11-6.6.02-10.22.02-.12-1.74-.25-3.19-.3-4.63-.05-1.33.04-2.67-.02-4-.28-6.08-3.13-9.02-9.37-9.21-5.83-.18-11.66-.04-17.5-.04-.79,0-1.59,0-2.62,0v17.34c-3.25,1.1-6.41.38-9.49.51-3.14.14-6.29.03-9.39.03-.89-4.03-1.19-40.83-.43-51.88Zm19.39,12.81v8.28c3.06.64,20.99.93,23.44.41.96-.21,1.97-.38,2.85-.79,1.57-.74,2.58-3,2.2-4.6-.43-1.82-2.03-3.23-4.43-3.26-7.93-.1-15.87-.04-24.05-.04Z" style="stroke-width:0px;"/><path d="m71.41,290.7h-19.55v-19.53H19.81v19.42H0v-51.44h19.24c.9,2.75.29,5.73.39,8.65.11,2.95.02,5.92.02,9.08h31.91v-17.44c3.49-.98,6.79-.35,10.04-.46,3.15-.12,6.3-.03,9.4-.03.86,3.99,1.13,39.91.4,51.74Z" style="stroke-width:0px;"/><path d="m487.28,239.07h56.62c.37,4.14.08,8.18.16,12.67h-37.2v6.1h36.51c.56,4.42.21,8.48.29,12.92h-36.78v6.92h37.62c.69,4.35.21,8.45.33,12.51-3.78.87-44.81,1.18-57.55.44v-51.55Z" style="stroke-width:0px;"/><path d="m124.84,271.64v18.74c-3.24.98-6.55.3-9.8.43-3.15.12-6.31.03-9.86.03v-19.59c-9.39-10.72-18.46-21.07-27.42-31.29.14-.43.14-.6.23-.68.11-.11.29-.21.44-.21,7.15-.01,14.3,0,22.08,0,4.73,5.56,9.77,11.48,15.11,17.76,5.16-5.93,10.35-11.87,15.42-17.7h21.44c-9.4,11.06-18.37,21.61-27.64,32.53Z" style="stroke-width:0px;"/><path d="m373.78,46.89c-2.63,1.35-5.25,2.71-7.88,4.06-.37-.27-.9-.47-1.1-.84-4.03-7.41-8.04-14.82-12.02-22.26-1.21-2.27-2.34-4.58-3.41-6.91-.11-.24.4-.76.62-1.15,4.34,2.33,8.67,4.66,13.01,6.99-.28.13-.82.35-.8.38.49,1.41.98,2.83,1.58,4.2.62,1.44,1.51,2.78,1.97,4.26.45,1.47,1.97,1.96,2.38,3.72.59,2.51,2.46,4.74,3.91,7.01.25.39,1.14.36,1.74.53Z" style="fill:#5f03a0; stroke-width:0px;"/><path d="m346.77,44.96c-2.66-1.43-5.32-2.86-7.97-4.29-1.89-3.97-3.54-8.09-5.72-11.89-3.09-5.38-6.43-10.63-9.07-16.26-1.34-2.87-2.8-5.69-4.21-8.53,3.61.92,6.9,2.48,9.7,4.97-.17.52-.63,1.2-.45,1.55,1.85,3.72,3.76,7.41,5.72,11.07,3.32,6.19,6.74,12.33,10.03,18.53.82,1.53,1.33,3.23,1.98,4.85Z" style="fill:#7c02d0; stroke-width:0px;"/><path d="m273.84,32.72c2.65,1.38,5.3,2.76,7.95,4.14-.01,3.01,2.43,4.79,3.66,7.17,4.34,8.36,8.9,16.6,13.32,24.92.81,1.53,1.35,3.21,2.01,4.82-2.67-1.38-5.33-2.75-8-4.13-1.67-3.42-3.25-6.88-5.02-10.24-2.38-4.51-4.9-8.95-7.4-13.39-1.02-1.82-2.31-3.51-3.21-5.38-1.24-2.58-2.22-5.27-3.32-7.92Z" style="fill:#2a73f7; stroke-width:0px;"/><path d="m273.84,32.72c1.09,2.64,2.08,5.34,3.32,7.92.9,1.87,2.18,3.56,3.21,5.38,2.5,4.44,5.02,8.88,7.4,13.39,1.78,3.36,3.36,6.83,5.02,10.24-2.69-1.54-5.37-3.07-8.06-4.61-2.64-4.96-5.31-9.91-7.91-14.89-1.25-2.39-2.32-4.88-3.59-7.26-2.33-4.4-4.76-8.75-7.09-13.15-.07-.13.43-.56.66-.86,2.34,1.28,4.68,2.56,7.03,3.84Z" style="fill:#238cf8; stroke-width:0px;"/><path d="m346.77,44.96c-.65-1.62-1.16-3.32-1.98-4.85-3.3-6.2-6.71-12.34-10.03-18.53-1.97-3.66-3.88-7.35-5.72-11.07-.18-.35.29-1.03.45-1.55,2.46,1.3,4.92,2.6,7.37,3.9-1.01.26-1.37.81-.78,1.77,1.09,1.79,2.35,3.51,3.26,5.39,4.06,8.41,8.7,16.51,13.37,24.58.69,1.2.73,2.77,1.07,4.17-2.34-1.27-4.68-2.54-7.02-3.81Z" style="fill:#7302c2; stroke-width:0px;"/><path d="m350,19.79c-.22.39-.73.91-.62,1.15,1.08,2.33,2.2,4.65,3.41,6.91,3.98,7.44,7.98,14.85,12.02,22.26.2.37.72.56,1.1.84-1.65.75-2.89,3.32-5.19,1.16-.78-1.38-1.53-2.77-2.35-4.12-.58-.96-1.59-1.79-1.8-2.8-.67-3.34-2.47-6.31-4.24-8.87-4.05-5.84-6.24-12.6-10.1-18.47-.52-.8-.75-1.45.35-1.91,1.24.62,2.48,1.21,3.71,1.85,1.25.65,2.48,1.34,3.71,2.01Z" style="fill:#6703ae; stroke-width:0px;"/><path d="m319.79,3.99c1.41,2.84,2.86,5.66,4.21,8.53,2.64,5.64,5.98,10.88,9.07,16.26,2.19,3.8,3.83,7.92,5.72,11.89-1.34-.63-2.68-1.27-4.03-1.9-1.97-.93-3.11-2.65-3.91-4.54-2.15-5.09-5.29-9.62-8.07-14.34.27-.55.54-1.1.9-1.85-.93-.8-1.92-1.64-2.88-2.45.3-.44.7-.86.64-.95-1.86-2.6-2.85-5.84-5.65-7.75h0c-.21-1.46.61-3.12-.85-4.34.35-.25.7-.5,1.04-.75,1.27.73,2.54,1.46,3.8,2.19Z" style="fill:#8301de; stroke-width:0px;"/><path d="m342.58,15.94c-1.09.46-.87,1.11-.35,1.91,3.86,5.87,6.05,12.63,10.1,18.47,1.77,2.55,3.57,5.53,4.24,8.87.2,1.01,1.22,1.85,1.8,2.8.82,1.35,1.57,2.75,2.35,4.12-2.31-1.11-4.62-2.23-6.92-3.34-.34-1.4-.38-2.97-1.07-4.17-4.68-8.08-9.31-16.17-13.37-24.58-.91-1.88-2.17-3.6-3.26-5.39-.59-.96-.23-1.52.78-1.77,1.91,1.03,3.81,2.05,5.72,3.08Z" style="fill:#6e04b9; stroke-width:0px;"/><path d="m311.79,79.76c-.24.17-.51.23-.8.19-1.76-1.28-3.52-2.55-5.28-3.83-4.78-12.19-12.82-22.73-17.97-34.75.64-.29.93-.42,1.22-.56,1.28.04,2.56.09,3.83.13-1.19,1.16-.42,2.35.11,3.38,1.91,3.66,3.96,7.25,5.91,10.88,3.34,6.21,6.65,12.42,9.95,18.64,1.04,1.95,2.01,3.94,3.02,5.91Z" style="fill:#315af6; stroke-width:0px;"/><path d="m318.79,75.91c-1.01.61-2.02,1.22-3.03,1.83-.9-2.02-1.67-4.12-2.74-6.05-2.32-4.2-5.22-8.13-7.09-12.52-2.71-6.33-6.75-11.9-9.59-18.13-.23-.5-.99-.76-1.51-1.13,1.3-.7,2.61-1.41,3.91-2.11,6.68,12.7,13.36,25.4,20.04,38.11Z" style="fill:#4342f4; stroke-width:0px;"/><path d="m261.78,52.92c-4.66-2.4-9.33-4.8-13.99-7.2-.25-.72-.46-1.46-.76-2.16-1.06-2.55-2.16-5.09-3.24-7.63,2-1.01,4.01-2.02,6.01-3.03.49.04.98.07,1.25.09,3.62,6.73,7.17,13.33,10.71,19.93Z" style="fill:#0ddcfc; stroke-width:0px;"/><path d="m261.78,52.92c-3.55-6.6-7.1-13.2-10.71-19.93-.27-.02-.76-.05-1.25-.09,1.98-1.03,3.96-2.06,5.94-3.1,1.62,3.47,2.9,7.16,4.98,10.32,1.27,1.93,1.33,4.85,4.05,5.77.61,1.44,1.09,2.95,1.85,4.3,1.09,1.93,2.41,3.73,3.54,5.63.12.2-.35.75-.55,1.14-2.62-1.35-5.23-2.7-7.85-4.05Z" style="fill:#15bbfb; stroke-width:0px;"/><path d="m373.78,46.89c-.59-.17-1.49-.14-1.74-.53-1.45-2.27-3.31-4.5-3.91-7.01-.42-1.76-1.93-2.25-2.38-3.72-.46-1.48-1.35-2.83-1.97-4.26-.59-1.37-1.09-2.79-1.58-4.2-.01-.03.52-.25.8-.38,2.2,1.05,4.44,2.01,6.58,3.16,1.49.81,2.83,1.88,4.24,2.83.21.76.31,1.56.64,2.26,1.42,3,2.9,5.98,4.35,8.96-1.68.96-3.36,1.93-5.05,2.89Z" style="fill:#500683; stroke-width:0px;"/><path d="m288.97,40.81c-.29.13-.58.26-1.22.56,5.15,12.02,13.19,22.56,17.97,34.75-1.64-.78-3.28-1.55-4.92-2.33-.66-1.61-1.2-3.29-2.01-4.82-4.42-8.32-8.98-16.56-13.32-24.92-1.23-2.38-3.68-4.16-3.66-7.17,2.65.83,5.33,1.63,7.17,3.94Z" style="fill:#2f64f6; stroke-width:0px;"/><path d="m313.8,29.93c.89-.97,1.06-1.93-.08-2.85-2.49-5.01-4.55-10.21-7.79-14.86-1.51-2.16-2.15-4.94-3.18-7.43.68-.3,1.36-.6,2.04-.89,1.68,3.42,3.27,6.9,5.05,10.26,4.94,9.34,9.95,18.65,14.97,27.95.2.37.72.56,1.09.83-1.35.71-2.69,1.42-4.04,2.13-2.69-5.05-5.37-10.1-8.06-15.15Z" style="fill:#7e0ff0; stroke-width:0px;"/><path d="m325.9,42.95c-.37-.27-.9-.46-1.09-.83-5.02-9.3-10.03-18.6-14.97-27.95-1.78-3.37-3.37-6.84-5.05-10.26.66-.36,1.32-.71,1.97-1.07,1.75,3.24,3.5,6.48,5.26,9.71,4.59,8.43,9.21,16.83,13.72,25.3.65,1.23.73,2.76,1.07,4.15-.31.32-.61.64-.92.96Z" style="fill:#8706f0; stroke-width:0px;"/><path d="m311.79,79.76c-1-1.97-1.98-3.96-3.02-5.91-3.3-6.22-6.62-12.44-9.95-18.64-1.95-3.64-4-7.22-5.91-10.88-.53-1.02-1.3-2.22-.11-3.38l.04-.02c1.97-.54,2.19,1.28,2.58,2.27,2.37,5.98,6.63,10.88,9.17,16.82,2.5,5.83,6.09,11.2,9.13,16.81.28.51.05,1.3.05,1.97-.27.29-.54.58-.81.87-.4.04-.79.07-1.19.11Z" style="fill:#394af5; stroke-width:0px;"/><path d="m318.79,75.91c-6.68-12.7-13.36-25.4-20.04-38.11.66-.31,1.33-.62,1.99-.93.37.45.83.85,1.1,1.36,1.92,3.62,3.75,7.28,5.69,10.88,4.36,8.11,8.77,16.18,13.13,24.29.21.39.09.97.12,1.46-.66.35-1.32.7-1.98,1.05Z" style="fill:#4d38f4; stroke-width:0px;"/><path d="m326.82,41.99c-.34-1.39-.42-2.92-1.07-4.15-4.51-8.47-9.14-16.87-13.72-25.3-1.76-3.23-3.51-6.47-5.26-9.71.65-.37,1.3-.74,1.95-1.11.74,1.23,1.53,2.43,2.2,3.69,6.31,11.84,12.61,23.7,18.91,35.55-1,.34-1.99.69-2.99,1.03Z" style="fill:#8c02ef; stroke-width:0px;"/><path d="m320.78,74.86c-.03-.49.09-1.06-.12-1.46-4.36-8.11-8.77-16.18-13.13-24.29-1.94-3.6-3.77-7.26-5.69-10.88-.27-.5-.73-.91-1.1-1.36.67-.36,1.34-.72,2-1.08,2.7,5.09,5.41,10.17,8.11,15.26.98.94,1.96,1.88,2.94,2.81.96,2.14,1.83,4.33,2.9,6.41,2.31,4.47,4.72,8.89,7.08,13.33l-3.01,1.25Z" style="fill:#4f38f3; stroke-width:0px;"/><path d="m323.78,73.61c-2.37-4.44-4.78-8.86-7.08-13.33-1.07-2.08-1.94-4.27-2.9-6.41,2.66,1.37,5.33,2.74,7.99,4.11.97,2.11,1.94,4.22,2.92,6.33,1.04,2.25,2.1,4.5,3.14,6.75-1.36.85-2.71,1.7-4.07,2.55Z" style="fill:#612af2; stroke-width:0px;"/><path d="m266.82,28.88c-.23.29-.73.73-.66.86,2.33,4.4,4.76,8.75,7.09,13.15,1.26,2.38,2.34,4.87,3.59,7.26,2.6,4.98,5.27,9.93,7.91,14.89-1.32-.71-2.64-1.42-3.96-2.12-.39-1.2-.64-2.48-1.21-3.58-1.61-3.09-3.56-6.01-5-9.17-1.84-4.05-4.42-7.65-6.44-11.57-1.95-3.79-4.41-7.36-5.34-11.62,1.34.64,2.69,1.27,4.03,1.91Z" style="fill:#219af9; stroke-width:0px;"/><path d="m322.79,19.89c2.79,4.73,5.92,9.25,8.07,14.34.8,1.89,1.93,3.6,3.91,4.54-.99.38-1.98.75-2.97,1.13-.34-.29-.85-.52-1.01-.89-2.97-6.92-7.4-13.06-10.51-19.93-2.31-5.1-5.57-9.76-8.31-14.67-.61-1.09-.82-2.41-1.22-3.62.36-.24.71-.48,1.07-.72.33.89.55,1.84,1.01,2.66.82,1.5.9,3.55,2.97,4.16h0c1.73,4.66,3.68,9.2,7,13Z" style="fill:#8802e5; stroke-width:0px;"/><path d="m310.86,51.05c-2.7-5.09-5.41-10.17-8.11-15.26,1.33-.67,2.67-1.34,4-2,2.68,5.03,5.36,10.06,8.03,15.08l-3.92,2.18Z" style="fill:#5b2df3; stroke-width:0px;"/><path d="m262.79,26.97c.93,4.26,3.39,7.84,5.34,11.62,2.02,3.92,4.6,7.52,6.44,11.57,1.44,3.16,3.39,6.08,5,9.17.58,1.11.82,2.38,1.21,3.58l-2.03-.9c-1.19-2.4-2.02-5.07-3.64-7.13-2.31-2.93-3.7-6.27-5.44-9.47-2.61-4.77-5.31-9.5-7.83-14.32-.64-1.23-.72-2.74-1.06-4.13.67,0,1.33,0,2,0Z" style="fill:#1c9ff9; stroke-width:0px;"/><path d="m260.79,26.98c.34,1.38.42,2.9,1.06,4.13,2.51,4.82,5.22,9.54,7.83,14.32,1.74,3.19,3.13,6.54,5.44,9.47,1.62,2.06,2.45,4.73,3.64,7.13-1.68-.99-3.35-1.97-5.03-2.96.97-2.52-1.24-3.94-2.17-5.7-4.06-7.7-8.38-15.26-12.53-22.92-.36-.66-.17-1.61-.24-2.42.67-.35,1.33-.7,2-1.05Z" style="fill:#1ba6fa; stroke-width:0px;"/><path d="m258.79,28.03c.07.81-.12,1.76.24,2.42,4.15,7.65,8.46,15.22,12.53,22.92.93,1.76,3.14,3.17,2.17,5.7-1.36-.7-2.73-1.39-4.09-2.09.2-.39.67-.94.55-1.14-1.13-1.91-2.45-3.7-3.54-5.63-.76-1.35-1.25-2.86-1.85-4.3-1.38-2.88-2.76-5.75-4.12-8.63-1.3-2.74-2.58-5.49-3.88-8.23.67-.33,1.33-.67,2-1Z" style="fill:#19b0fa; stroke-width:0px;"/><path d="m310.75.79c.4,1.21.61,2.53,1.22,3.62,2.74,4.91,6,9.57,8.31,14.67,3.11,6.87,7.54,13.01,10.51,19.93.16.37.67.6,1.01.89-.66.35-1.32.7-1.99,1.06-6.3-11.85-12.59-23.71-18.91-35.55-.67-1.26-1.46-2.46-2.2-3.69.68-.31,1.36-.62,2.04-.93Z" style="fill:#8b02eb; stroke-width:0px;"/><path d="m313.8,29.93c2.69,5.05,5.37,10.1,8.06,15.15-1.04.6-2.08,1.2-3.12,1.8-.61-.5-1.44-.88-1.79-1.53-2.44-4.43-4.78-8.91-7.16-13.38,1.33-.68,2.67-1.36,4-2.04Z" style="fill:#701bf1; stroke-width:0px;"/><path d="m313.79,78.78c0-.66.23-1.45-.05-1.97-3.04-5.61-6.63-10.97-9.13-16.81-2.54-5.93-6.8-10.84-9.17-16.82-.39-.99-.61-2.81-2.58-2.27.67-.34,1.33-.67,2-1.01.52.37,1.28.63,1.51,1.13,2.84,6.23,6.88,11.8,9.59,18.13,1.87,4.38,4.78,8.31,7.09,12.52,1.07,1.93,1.83,4.03,2.74,6.05-.66.35-1.32.69-1.97,1.04Z" style="fill:#3a49f5; stroke-width:0px;"/><path d="m305.78,22.93c-1.99-1.02-3.99-2.04-5.98-3.06-2.66-2.98-4.39-6.51-6.06-10.08,1.29-.66,2.57-1.32,3.86-1.98,1.06,1.68,2.38,3.25,3.13,5.05,1.45,3.49,3.98,6.41,5.05,10.07Z" style="fill:#6a22f2; stroke-width:0px;"/><path d="m309.8,31.97c2.37,4.47,4.71,8.95,7.16,13.38.35.64,1.18,1.02,1.79,1.53-1.32.67-2.65,1.33-3.97,2-2.68-5.03-5.36-10.06-8.03-15.08,1.02-.61,2.04-1.22,3.05-1.82Z" style="fill:#6825f2; stroke-width:0px;"/><path d="m378.83,44c-1.46-2.98-2.94-5.96-4.35-8.96-.33-.7-.44-1.5-.64-2.26,4.23,2.1,8.45,4.2,12.93,6.42-1.96,2.96-5.32,3.29-7.93,4.8Z" style="fill:#490777; stroke-width:0px;"/><path d="m305.78,22.93c-1.07-3.66-3.6-6.59-5.05-10.07-.75-1.81-2.07-3.38-3.13-5.05,1.05-.67,2.1-1.34,3.16-2.01,1.71,3.56,3.36,7.15,5.14,10.68,1.42,2.81,3.51,5.31,3.83,8.61-1.31-.72-2.63-1.43-3.94-2.15Z" style="fill:#741cf1; stroke-width:0px;"/><path d="m327.85,71.06c-1.05-2.25-2.1-4.5-3.14-6.75-.98-2.11-1.95-4.22-2.92-6.33,2.34,1.34,4.67,2.67,7.01,4.01,1.32,2.26,2.64,4.52,3.97,6.78-1.64.76-3.27,1.53-4.91,2.29Z" style="fill:#6c22f2; stroke-width:0px;"/><path d="m309.72,25.08c-.33-3.3-2.41-5.8-3.83-8.61-1.78-3.53-3.43-7.12-5.14-10.68.67-.33,1.33-.67,2-1,1.03,2.5,1.67,5.27,3.18,7.43,3.25,4.65,5.3,9.85,7.79,14.86-1.34-.67-2.67-1.34-4.01-2.01Z" style="fill:#7b12f0; stroke-width:0px;"/><path d="m293.74,9.78c1.66,3.57,3.4,7.11,6.06,10.08-4.27-2.12-8.53-4.24-13.01-6.46,2.24-1.73,4.4-3.04,6.96-3.62Z" style="fill:#5f33f3; stroke-width:0px;"/><path d="m243.8,35.93c1.08,2.54,2.17,5.08,3.24,7.63.29.7.51,1.44.76,2.16-3.68-1.96-7.36-3.92-11.48-6.11,2.91-1.43,5.2-2.55,7.49-3.67Z" style="fill:#0efbfe; stroke-width:0px;"/><path d="m332.77,68.77c-1.32-2.26-2.64-4.52-3.97-6.78,2.72,1.14,5.44,2.28,8.22,3.45-.9,2.38-2.76,2.6-4.25,3.33Z" style="fill:#7a21f2; stroke-width:0px;"/><path d="m256.79,29.03c1.29,2.74,2.58,5.49,3.88,8.23,1.37,2.88,2.75,5.75,4.12,8.63-2.72-.92-2.78-3.84-4.05-5.77-2.08-3.17-3.36-6.85-4.98-10.32.34-.26.69-.52,1.03-.77Z" style="fill:#17b6fa; stroke-width:0px;"/><path d="m315.79,6.89c-2.07-.61-2.15-2.67-2.97-4.16-.45-.82-.68-1.77-1.01-2.66,1.77-.32,3.02.57,4.17,1.74-.35.25-.7.5-1.04.75,1.45,1.22.63,2.88.85,4.34Z" style="fill:#8602e2; stroke-width:0px;"/><path d="m322.79,19.89c-3.32-3.8-5.27-8.34-7-13,2.8,1.91,3.79,5.15,5.65,7.75.06.09-.34.51-.64.95.96.82,1.95,1.66,2.88,2.45-.36.75-.63,1.3-.9,1.85Z" style="fill:#8602e2; stroke-width:0px;"/></g></svg>