<?xml version="1.0" encoding="utf-8"?>
<!-- Generator: Adobe Illustrator 28.0.0, SVG Export Plug-In . SVG Version: 6.00 Build 0)  -->
<svg version="1.1" id="Layer_1" xmlns="http://www.w3.org/2000/svg" xmlns:xlink="http://www.w3.org/1999/xlink" x="0px" y="0px"
	 viewBox="0 0 300 300" style="enable-background:new 0 0 300 300;" xml:space="preserve">
<style type="text/css">
	.st0{fill-rule:evenodd;clip-rule:evenodd;fill:#FFFFFF;}
</style>
<path class="st0" d="M160.6,163.8c-0.2,0.2-0.6,0.1-0.6-0.2l0-14.3c0-0.4-0.3-0.7-0.7-0.7h-8.5c-0.4,0-0.7,0.3-0.7,0.7v3
	c-0.9-0.7-1.9-1.3-2.8-1.8c0.1-0.1,0.2-0.2,0.3-0.3c0.9-2,1.7-4,2.5-6c0.4-1,0.9-1.4,2.1-1.4c5.8,0.1,11.5,0,17.3,0
	c1.1,0,1.7,0.3,2,1.3c0.7,2.1,1.6,4.1,2.5,6.1c0.1,0.2,0.3,0.3,0.5,0.4C170.2,154.6,162.8,161.7,160.6,163.8z M146.4,177.5
	c-0.3-0.2-0.7-0.2-1,0.1c-6.7,6-15.8,4.6-20.3,0.4c-5.2-4.8-5.2-12.8-0.1-17.7c4.1-3.9,13.2-6.1,20.4,0.3c0.3,0.2,0.7,0.3,1,0.1
	c1.2-0.8,2.3-1.6,3.5-2.4v21.6C148.7,179.2,147.6,178.4,146.4,177.5z M127.2,134.6c0.7,0,1.2,0,1.8,0c2.7,0,5.3,0.1,8-0.1
	c2.7-0.1,5.2-0.9,7.2-2.2c-2.3,5.1-4.5,10.2-6.8,15.3c-3.7-0.4-7.5,0.1-11,1.3v-13.6C126.4,134.9,126.8,134.6,127.2,134.6z
	 M126.5,118.7c0-0.4,0.3-0.7,0.8-0.7c3,0,5.9-0.2,8.8,0.1c2.5,0.3,4,2.3,3.9,4.5c-0.1,2.1-1.7,4-4.2,4.2c-2.7,0.2-5.5,0.1-8.5,0.1
	c-0.4,0-0.8-0.3-0.8-0.7V118.7z M154,134.1c1.9-4.7,3.8-9.4,5.8-14.3c0.2-0.6,1.2-0.6,1.4,0c2,4.9,3.9,9.5,5.9,14.3
	c0.2,0.4-0.2,0.9-0.7,0.9h-11.7C154.2,135,153.8,134.5,154,134.1z M190.9,189.6c-7.2-7.6-14-14.8-21-22.1c-0.3-0.3-0.2-0.7,0-0.9
	c6.1-5.6,12.1-11.1,18.4-16.9c0.5-0.4,0.1-1.2-0.5-1.2c-1.3,0-2.6,0-3.8,0c-1.3-3-2.6-5.9-3.9-8.8c-4.3-9.8-8.7-19.6-13-29.4
	c-0.3-0.8-0.4-1.8-1.9-1.8c-3.3,0.1-6.6,0-9.9,0c-0.3,0-0.6,0.2-0.7,0.4c-1.6,3.7-3.3,7.4-4.9,11.1c-1.2-6.5-7.1-10.5-13.4-10.5
	c-6-0.1-12.1,0-18.1,0c-0.3,0-0.6,0-1,0c-0.4,0-0.7,0.3-0.7,0.7v44.8c0,0.1,0,0.3,0.1,0.4c-8,8.8-7.2,21.8,2.5,29.8
	c8.7,7.2,21.9,7.3,30.9,0.7v4c0,0.4,0.3,0.7,0.7,0.7h8.7c0.4,0,0.7-0.3,0.7-0.7v-17.4c0-0.6,0.9-0.9,1.3-0.4l0,0
	c5.2,5.8,10.5,11.6,15.7,17.4c0.8,0.9,1.6,1.3,2.9,1.2c2.4-0.1,4.7,0,7.1,0h3.2C191,190.7,191.3,190.1,190.9,189.6z"/>
</svg>
