<svg width="80" height="83" viewBox="0 0 80 83" fill="none" xmlns="http://www.w3.org/2000/svg">
<path fill-rule="evenodd" clip-rule="evenodd" d="M49.5055 55.3283C49.2767 55.5481 48.8693 55.4018 48.8687 55.1L48.8331 40.7815C48.8331 40.4105 48.4998 40.1088 48.0901 40.1088H39.5434C39.133 40.1088 38.8003 40.4105 38.8003 40.7815V43.8043C37.8904 43.1416 36.9408 42.5471 35.9579 42.0207C36.081 41.9441 36.1796 41.8342 36.2351 41.7015C37.0861 39.6744 37.9639 37.7101 38.6906 35.7009C39.0659 34.6609 39.6093 34.2741 40.8327 34.2852C46.59 34.338 52.348 34.3253 58.1059 34.2942C59.188 34.2884 59.7764 34.5642 60.1406 35.573C60.8842 37.6324 61.7871 39.6443 62.6504 41.6963C62.7333 41.895 62.9136 42.0424 63.1307 42.1026C59.1186 46.0888 51.71 53.2113 49.5055 55.3283ZM35.3245 69.0139C35.0192 68.802 34.5885 68.8342 34.3147 69.0794C27.5686 75.1287 18.4919 73.6337 13.9953 69.4821C8.81756 64.7017 8.77963 56.6718 13.892 51.82C18.0186 47.9031 27.0859 45.746 34.3328 52.1228C34.6077 52.3644 35.0303 52.3966 35.3344 52.1857C36.4872 51.3872 37.6481 50.5835 38.8049 49.7818V71.4279C37.6568 70.632 36.5012 69.8298 35.3245 69.0139ZM16.1597 26.0919C16.825 26.0929 17.3889 26.094 17.9527 26.0908C20.6137 26.0765 23.2787 26.1468 25.9338 26.0269C28.6316 25.9048 31.0923 25.1089 33.1247 23.8258C30.8688 28.9154 28.6112 34.0103 26.3488 39.1151C22.6583 38.751 18.8959 39.1754 15.3735 40.3919V26.7995C15.3735 26.4084 15.7283 26.0913 16.1597 26.0919ZM15.4827 10.1294C15.4827 9.74046 15.8289 9.42762 16.2579 9.42286C19.2095 9.39062 22.1605 9.20408 25.0509 9.50636C27.5694 9.76953 29.0292 11.8326 28.9498 13.9708C28.871 16.1094 27.2683 17.996 24.7293 18.2132C21.9995 18.4468 19.2299 18.3009 16.2608 18.2761C15.8318 18.2724 15.4827 17.9585 15.4827 17.5696V10.1294ZM42.927 25.536C44.8444 20.8169 46.739 16.1528 48.7369 11.2334C48.9768 10.642 49.9014 10.6405 50.1442 11.2307C52.1561 16.1232 54.067 20.7683 56.0264 25.5323C56.2085 25.9752 55.8472 26.4492 55.3254 26.4492H43.6298C43.1092 26.4492 42.7473 25.9784 42.927 25.536ZM79.8193 81.0951C72.65 73.5377 65.7837 66.2989 58.8514 58.9914C58.5992 58.7261 58.615 58.3292 58.8853 58.0798C64.9782 52.4702 70.9912 46.9336 77.2429 41.1776C77.7064 40.7507 77.3702 40.0251 76.7089 40.0272C75.4003 40.0309 74.1535 40.0362 72.9284 40.0393C71.6087 37.0456 70.3194 34.1201 69.0277 31.2004C64.6881 21.388 60.3561 11.573 55.9832 1.77223C55.6459 1.01654 55.6161 -0.0340318 54.1201 0.000846353C50.837 0.078001 47.5503 0.0314968 44.1831 0.0267407C43.8767 0.0267407 43.5983 0.195847 43.4845 0.453734C41.8449 4.15293 40.2071 7.84737 38.5711 11.5413C37.3757 5.04285 31.4882 1.08418 25.1501 1.01865C19.1091 0.956296 13.0669 0.999629 7.0259 1.00333C6.70138 1.00333 6.37627 1.02077 6.04299 1.04032C5.63267 1.06516 5.31223 1.3743 5.31223 1.74687V46.5309C5.31223 46.6704 5.3601 46.7967 5.43539 46.9056C-2.5837 55.7276 -1.71577 68.7176 7.94752 76.6936C16.681 83.9018 29.8925 83.9504 38.8022 77.4403V81.3927C38.8022 81.7642 39.1349 82.0654 39.5452 82.0654H48.2723C48.6821 82.0654 49.0148 81.7642 49.0148 81.3927V63.9996C49.0148 63.3686 49.8885 63.0864 50.3298 63.5742L50.3391 63.5847C55.5752 69.3814 60.8271 75.1664 66.023 80.9926C66.8209 81.8878 67.6468 82.2857 68.9326 82.2355C71.3029 82.1436 73.6802 82.2096 76.0546 82.2096H79.2554C79.8905 82.2096 80.2331 81.5316 79.8193 81.0951Z" fill="white"/>
</svg>
