<?xml version="1.0" encoding="UTF-8"?><svg id="uuid-eed05b21-1cdc-4615-bc36-bfe6dacfd212" xmlns="http://www.w3.org/2000/svg" viewBox="0 0 1800.99 1800.99"><g id="uuid-4cf1dc25-1f77-43d9-9f9c-57a92edd9a23"><rect width="1800.99" height="1800.99" style="fill:#05a37d; stroke-width:0px;"/><path d="m1527.23,887.82l-328.58-45.64c-141.47-20.54-253.28-132.35-273.82-273.82l-45.64-328.58c-2.28-18.25-29.66-18.25-31.95,0l-45.64,328.58c-20.54,141.47-132.35,253.28-273.82,273.82l-328.58,45.64c-18.25,2.28-18.25,29.66,0,31.95l328.58,45.64c141.47,20.54,253.28,132.35,273.82,273.82l45.64,328.58c2.28,18.25,29.66,18.25,31.95,0l45.64-328.58c20.54-141.47,132.35-253.28,273.82-273.82l328.58-45.64c18.25-2.28,18.25-29.66,0-31.95Z" style="fill:#fff; stroke-width:0px;"/><path d="m1085.33,450.08l119.67,16.55c52.2,7.64,92.94,48.38,100.57,100.57l16.55,119.67c1.27,7.64,11.46,7.64,12.73,0l16.55-119.67c7.64-52.2,48.38-92.94,100.57-100.57l119.67-16.55c7.64-1.27,7.64-11.46,0-12.73l-119.67-16.55c-52.2-7.64-92.94-48.38-100.57-100.57l-16.55-119.67c-1.27-7.64-11.46-7.64-12.73,0l-16.55,120.94c-7.64,52.2-48.38,92.94-100.57,100.57l-119.67,16.55c-7.64,0-7.64,10.18,0,11.46Z" style="fill:#fff; stroke-width:0px;"/><path d="m548.58,1296.11l-65.87-9.41c-28.82-4.12-51.17-26.47-55.28-55.28l-9.41-65.87c-.59-4.12-5.88-4.12-6.47,0l-9.41,65.87c-4.12,28.82-26.47,51.17-55.28,55.28l-65.87,9.41c-4.12.59-4.12,5.88,0,6.47l65.87,9.41c28.82,4.12,51.17,26.47,55.28,55.28l9.41,65.87c.59,4.12,5.88,4.12,6.47,0l9.41-65.87c4.12-28.82,26.47-51.17,55.28-55.28l65.87-9.41c4.12-.59,4.12-5.88,0-6.47Z" style="fill:#fff; stroke-width:0px;"/></g></svg>